<?xml version="1.0" encoding="UTF-8"?>
<svg version="1.1" xmlns="http://www.w3.org/2000/svg" width="417" height="566">
<path d="M0 0 C137.61 0 275.22 0 417 0 C417 186.78 417 373.56 417 566 C279.39 566 141.78 566 0 566 C0 379.22 0 192.44 0 0 Z " fill="#FCFDFD" transform="translate(0,0)"/>
<path d="M0 0 C137.61 0 275.22 0 417 0 C417 186.78 417 373.56 417 566 C279.39 566 141.78 566 0 566 C0 379.22 0 192.44 0 0 Z M2 204 C2 322.8 2 441.6 2 564 C137.96 564 273.92 564 414 564 C414 445.2 414 326.4 414 204 C278.04 204 142.08 204 2 204 Z " fill="#FCFCFC" transform="translate(0,0)"/>
<path d="M0 0 C137.61 0 275.22 0 417 0 C417 18.48 417 36.96 417 56 C330.21 56 243.42 56 154 56 C154.33 57.32 154.66 58.64 155 60 C153.35 60 151.7 60 150 60 C149.67 60.66 149.34 61.32 149 62 C148.5978125 61.0409375 148.5978125 61.0409375 148.1875 60.0625 C147.11332248 57.66868314 147.11332248 57.66868314 144 57 C144 58.32 144 59.64 144 61 C145.32 61.66 146.64 62.32 148 63 C146.35 63 144.7 63 143 63 C141.875 58.25 141.875 58.25 143 56 C142.34 56 141.68 56 141 56 C141 58.31 141 60.62 141 63 C140.01 63 139.02 63 138 63 C137.67 62.01 137.34 61.02 137 60 C136.34 60.99 135.68 61.98 135 63 C134.34 63 133.68 63 133 63 C132.5978125 61.7934375 132.5978125 61.7934375 132.1875 60.5625 C131.5996875 59.2940625 131.5996875 59.2940625 131 58 C130.01 57.67 129.02 57.34 128 57 C128 58.98 128 60.96 128 63 C127.34 63 126.68 63 126 63 C126 60.69 126 58.38 126 56 C125.34 56 124.68 56 124 56 C124.495 57.98 124.495 57.98 125 60 C124.34 60 123.68 60 123 60 C123.33 60.99 123.66 61.98 124 63 C122.35 62.67 120.7 62.34 119 62 C117.875 58.25 117.875 58.25 119 56 C117.68 56.33 116.36 56.66 115 57 C115.66 57.66 116.32 58.32 117 59 C116.625 61.125 116.625 61.125 116 63 C114.35 63 112.7 63 111 63 C110.67 62.34 110.34 61.68 110 61 C111.65 61.33 113.3 61.66 115 62 C113.75453595 58.26360784 112.36595047 57.81243487 109 56 C109 58.31 109 60.62 109 63 C108.34 63 107.68 63 107 63 C107 60.69 107 58.38 107 56 C106.01 56.495 106.01 56.495 105 57 C105 58.98 105 60.96 105 63 C103.35 63 101.7 63 100 63 C99.67 62.01 99.34 61.02 99 60 C100.32 59.67 101.64 59.34 103 59 C103 58.34 103 57.68 103 57 C101.35 57.33 99.7 57.66 98 58 C98 59.65 98 61.3 98 63 C97.34 63 96.68 63 96 63 C95.67 61.35 95.34 59.7 95 58 C94.34 58 93.68 58 93 58 C92.67 59.65 92.34 61.3 92 63 C91.34 63 90.68 63 90 63 C90 60.69 90 58.38 90 56 C89.67 57.32 89.34 58.64 89 60 C87.68 60.33 86.36 60.66 85 61 C86.485 61.99 86.485 61.99 88 63 C86.35 62.67 84.7 62.34 83 62 C83 60.35 83 58.7 83 57 C82.01 57 81.02 57 80 57 C80 58.65 80 60.3 80 62 C80.66 62.33 81.32 62.66 82 63 C81.01 63 80.02 63 79 63 C79 61.02 79 59.04 79 57 C78.34 57 77.68 57 77 57 C77 58.98 77 60.96 77 63 C75.02 63 73.04 63 71 63 C71.33 61.68 71.66 60.36 72 59 C72.99 59 73.98 59 75 59 C75 58.34 75 57.68 75 57 C73.68 57.33 72.36 57.66 71 58 C71 57.34 71 56.68 71 56 C70.34 56 69.68 56 69 56 C69 58.31 69 60.62 69 63 C68.34 63 67.68 63 67 63 C66.67 62.01 66.34 61.02 66 60 C65.01 60.99 65.01 60.99 64 62 C63.67 61.67 63.34 61.34 63 61 C62.505 61.99 62.505 61.99 62 63 C61.34 63 60.68 63 60 63 C60 60.69 60 58.38 60 56 C54.06 56.33 48.12 56.66 42 57 C41.67 58.98 41.34 60.96 41 63 C37.84859577 62.65930765 36.39218439 62.41923159 34.1875 60.0625 C33 58 33 58 33 56 C22.44 56 11.88 56 1 56 C1 223.64 1 391.28 1 564 C0.67 564 0.34 564 0 564 C0 377.88 0 191.76 0 0 Z " fill="#E1E1E1" transform="translate(0,0)"/>
<path d="M0 0 C136.95 0 273.9 0 415 0 C415 8.25 415 16.5 415 25 C278.05 25 141.1 25 0 25 C0 16.75 0 8.5 0 0 Z " fill="#F9FAFA" transform="translate(2,28)"/>
<path d="M0 0 C0.99 0.33 1.98 0.66 3 1 C2.34 1 1.68 1 1 1 C1 126.73 1 252.46 1 382 C0.67 382 0.34 382 0 382 C0 280.36 0 178.72 0 74 C-135.96 74 -271.92 74 -412 74 C-412 66.74 -412 59.48 -412 52 C-276.04 52 -140.08 52 0 52 C0 34.84 0 17.68 0 0 Z " fill="#6C96D7" transform="translate(414,130)"/>
<path d="M0 0 C0.33 0 0.66 0 1 0 C1 8.58 1 17.16 1 26 C138.28 26 275.56 26 417 26 C417 26.66 417 27.32 417 28 C280.05 28 143.1 28 2 28 C2 36.25 2 44.5 2 53 C138.95 53 275.9 53 417 53 C417 53.99 417 54.98 417 56 C330.21 56 243.42 56 154 56 C154.33 57.32 154.66 58.64 155 60 C153.35 60 151.7 60 150 60 C149.67 60.66 149.34 61.32 149 62 C148.5978125 61.0409375 148.5978125 61.0409375 148.1875 60.0625 C147.11332248 57.66868314 147.11332248 57.66868314 144 57 C144 58.32 144 59.64 144 61 C145.32 61.66 146.64 62.32 148 63 C146.35 63 144.7 63 143 63 C141.875 58.25 141.875 58.25 143 56 C142.34 56 141.68 56 141 56 C141 58.31 141 60.62 141 63 C140.01 63 139.02 63 138 63 C137.67 62.01 137.34 61.02 137 60 C136.34 60.99 135.68 61.98 135 63 C134.34 63 133.68 63 133 63 C132.5978125 61.7934375 132.5978125 61.7934375 132.1875 60.5625 C131.5996875 59.2940625 131.5996875 59.2940625 131 58 C130.01 57.67 129.02 57.34 128 57 C128 58.98 128 60.96 128 63 C127.34 63 126.68 63 126 63 C126 60.69 126 58.38 126 56 C125.34 56 124.68 56 124 56 C124.495 57.98 124.495 57.98 125 60 C124.34 60 123.68 60 123 60 C123.33 60.99 123.66 61.98 124 63 C122.35 62.67 120.7 62.34 119 62 C117.875 58.25 117.875 58.25 119 56 C117.68 56.33 116.36 56.66 115 57 C115.66 57.66 116.32 58.32 117 59 C116.625 61.125 116.625 61.125 116 63 C114.35 63 112.7 63 111 63 C110.67 62.34 110.34 61.68 110 61 C111.65 61.33 113.3 61.66 115 62 C113.75453595 58.26360784 112.36595047 57.81243487 109 56 C109 58.31 109 60.62 109 63 C108.34 63 107.68 63 107 63 C107 60.69 107 58.38 107 56 C106.01 56.495 106.01 56.495 105 57 C105 58.98 105 60.96 105 63 C103.35 63 101.7 63 100 63 C99.67 62.01 99.34 61.02 99 60 C100.32 59.67 101.64 59.34 103 59 C103 58.34 103 57.68 103 57 C101.35 57.33 99.7 57.66 98 58 C98 59.65 98 61.3 98 63 C97.34 63 96.68 63 96 63 C95.67 61.35 95.34 59.7 95 58 C94.34 58 93.68 58 93 58 C92.67 59.65 92.34 61.3 92 63 C91.34 63 90.68 63 90 63 C90 60.69 90 58.38 90 56 C89.67 57.32 89.34 58.64 89 60 C87.68 60.33 86.36 60.66 85 61 C86.485 61.99 86.485 61.99 88 63 C86.35 62.67 84.7 62.34 83 62 C83 60.35 83 58.7 83 57 C82.01 57 81.02 57 80 57 C80 58.65 80 60.3 80 62 C80.66 62.33 81.32 62.66 82 63 C81.01 63 80.02 63 79 63 C79 61.02 79 59.04 79 57 C78.34 57 77.68 57 77 57 C77 58.98 77 60.96 77 63 C75.02 63 73.04 63 71 63 C71.33 61.68 71.66 60.36 72 59 C72.99 59 73.98 59 75 59 C75 58.34 75 57.68 75 57 C73.68 57.33 72.36 57.66 71 58 C71 57.34 71 56.68 71 56 C70.34 56 69.68 56 69 56 C69 58.31 69 60.62 69 63 C68.34 63 67.68 63 67 63 C66.67 62.01 66.34 61.02 66 60 C65.01 60.99 65.01 60.99 64 62 C63.67 61.67 63.34 61.34 63 61 C62.505 61.99 62.505 61.99 62 63 C61.34 63 60.68 63 60 63 C60 60.69 60 58.38 60 56 C54.06 56.33 48.12 56.66 42 57 C41.67 58.98 41.34 60.96 41 63 C37.84859577 62.65930765 36.39218439 62.41923159 34.1875 60.0625 C33 58 33 58 33 56 C22.44 56 11.88 56 1 56 C1 223.64 1 391.28 1 564 C0.67 564 0.34 564 0 564 C0 377.88 0 191.76 0 0 Z " fill="#C4C4C4" transform="translate(0,0)"/>
<path d="M0 0 C0.33 0 0.66 0 1 0 C1 167.64 1 335.28 1 508 C136.96 508 272.92 508 413 508 C413 490.84 413 473.68 413 456 C413.0217933 444.10706126 413.0438034 432.21418508 413.07737541 420.32128334 C413.0927134 414.82689713 413.10705321 409.3325085 413.12135315 403.83811951 C413.14218905 395.87287525 413.16350927 387.90763242 413.18519592 379.94239044 C413.21654723 368.42716058 413.24710983 356.91192872 413.27750319 345.3966963 C413.32688072 326.69659165 413.37686283 307.99648868 413.42724609 289.29638672 C413.4760759 271.17236414 413.52460793 253.04834081 413.57275391 234.92431641 C413.5757409 233.79993271 413.5787279 232.67554902 413.58180541 231.51709309 C413.59679422 225.87423495 413.61177734 220.23137679 413.62675762 214.58851862 C413.75028838 168.05901004 413.87480908 121.52950414 414 75 C414.66 75 415.32 75 416 75 C416 218.55 416 362.1 416 510 C278.39 510 140.78 510 -1 510 C-0.67 341.7 -0.34 173.4 0 0 Z " fill="#EFEFEF" transform="translate(1,56)"/>
<path d="M0 0 C136.95 0 273.9 0 415 0 C415 0.33 415 0.66 415 1 C328.21 1 241.42 1 152 1 C152.33 2.32 152.66 3.64 153 5 C151.35 5 149.7 5 148 5 C147.67 5.66 147.34 6.32 147 7 C146.5978125 6.0409375 146.5978125 6.0409375 146.1875 5.0625 C145.11332248 2.66868314 145.11332248 2.66868314 142 2 C142 3.32 142 4.64 142 6 C143.98 6.99 143.98 6.99 146 8 C144.35 8 142.7 8 141 8 C139.875 3.25 139.875 3.25 141 1 C140.34 1 139.68 1 139 1 C139 3.31 139 5.62 139 8 C138.01 8 137.02 8 136 8 C135.67 7.01 135.34 6.02 135 5 C134.34 5.99 133.68 6.98 133 8 C132.34 8 131.68 8 131 8 C130.5978125 6.7934375 130.5978125 6.7934375 130.1875 5.5625 C129.5996875 4.2940625 129.5996875 4.2940625 129 3 C128.01 2.67 127.02 2.34 126 2 C126 3.98 126 5.96 126 8 C125.34 8 124.68 8 124 8 C124 5.69 124 3.38 124 1 C123.34 1 122.68 1 122 1 C122.495 2.98 122.495 2.98 123 5 C122.34 5 121.68 5 121 5 C121.495 6.485 121.495 6.485 122 8 C120.35 7.67 118.7 7.34 117 7 C115.875 3.25 115.875 3.25 117 1 C115.68 1.33 114.36 1.66 113 2 C113.99 2.99 113.99 2.99 115 4 C114.625 6.125 114.625 6.125 114 8 C112.35 8 110.7 8 109 8 C108.505 7.01 108.505 7.01 108 6 C109.65 6.33 111.3 6.66 113 7 C111.75453595 3.26360784 110.36595047 2.81243487 107 1 C107 3.31 107 5.62 107 8 C106.34 8 105.68 8 105 8 C105 5.69 105 3.38 105 1 C104.34 1.33 103.68 1.66 103 2 C103 3.98 103 5.96 103 8 C101.35 8 99.7 8 98 8 C97.505 6.515 97.505 6.515 97 5 C98.32 4.67 99.64 4.34 101 4 C101 3.34 101 2.68 101 2 C99.35 2.33 97.7 2.66 96 3 C96 4.65 96 6.3 96 8 C95.34 8 94.68 8 94 8 C93.505 5.525 93.505 5.525 93 3 C92.34 3 91.68 3 91 3 C90.67 4.65 90.34 6.3 90 8 C89.34 8 88.68 8 88 8 C88 5.69 88 3.38 88 1 C87.67 2.32 87.34 3.64 87 5 C85.68 5.33 84.36 5.66 83 6 C83.99 6.66 84.98 7.32 86 8 C84.35 7.67 82.7 7.34 81 7 C81 5.35 81 3.7 81 2 C80.01 2 79.02 2 78 2 C78 3.65 78 5.3 78 7 C78.99 7.495 78.99 7.495 80 8 C79.01 8 78.02 8 77 8 C77 6.02 77 4.04 77 2 C76.34 2 75.68 2 75 2 C75 3.98 75 5.96 75 8 C73.02 8 71.04 8 69 8 C69.33 6.68 69.66 5.36 70 4 C70.99 4 71.98 4 73 4 C73 3.34 73 2.68 73 2 C71.68 2.33 70.36 2.66 69 3 C69 2.34 69 1.68 69 1 C68.34 1 67.68 1 67 1 C67 3.31 67 5.62 67 8 C66.34 8 65.68 8 65 8 C64.505 6.515 64.505 6.515 64 5 C63.34 5.66 62.68 6.32 62 7 C61.505 6.505 61.505 6.505 61 6 C60.67 6.66 60.34 7.32 60 8 C59.34 8 58.68 8 58 8 C58 5.69 58 3.38 58 1 C52.06 1.33 46.12 1.66 40 2 C39.67 3.98 39.34 5.96 39 8 C35.84859577 7.65930765 34.39218439 7.41923159 32.1875 5.0625 C31 3 31 3 31 1 C20.77 1 10.54 1 0 1 C0 0.67 0 0.34 0 0 Z " fill="#B1B0B3" transform="translate(2,55)"/>
<path d="M0 0 C5.94 0 11.88 0 18 0 C18 5.94 18 11.88 18 18 C12.06 18 6.12 18 0 18 C0 12.06 0 6.12 0 0 Z " fill="#F67C37" transform="translate(83,432)"/>
<path d="M0 0 C5.94 0 11.88 0 18 0 C18 5.94 18 11.88 18 18 C12.06 18 6.12 18 0 18 C0 12.06 0 6.12 0 0 Z " fill="#F67C37" transform="translate(83,229)"/>
<path d="M0 0 C1.27617187 0.02320313 2.55234375 0.04640625 3.8671875 0.0703125 C5.78917969 0.09738281 5.78917969 0.09738281 7.75 0.125 C9.23113281 0.15980469 9.23113281 0.15980469 10.7421875 0.1953125 C10.79616085 2.6331088 10.83584366 5.06970935 10.8671875 7.5078125 C10.89232422 8.54325195 10.89232422 8.54325195 10.91796875 9.59960938 C10.95436544 13.36666646 10.88597614 14.97962954 8.7421875 18.1953125 C6.11521686 18.41668643 3.73324786 18.47693275 1.1171875 18.3828125 C0.41078125 18.36927734 -0.295625 18.35574219 -1.0234375 18.34179688 C-2.76855378 18.3064229 -4.51327858 18.25261471 -6.2578125 18.1953125 C-6.144161 15.56936466 -6.01742196 12.94519703 -5.8828125 10.3203125 C-5.851875 9.57394531 -5.8209375 8.82757813 -5.7890625 8.05859375 C-5.37086794 0.32199448 -5.37086794 0.32199448 0 0 Z " fill="#828282" transform="translate(139.2578125,296.8046875)"/>
<path d="M0 0 C1.12535156 0.00580078 1.12535156 0.00580078 2.2734375 0.01171875 C3.02367188 0.00785156 3.77390625 0.00398437 4.546875 0 C10.14682697 0.01010822 10.14682697 0.01010822 11.2734375 1.13671875 C11.39858678 3.11291322 11.4491651 5.09410048 11.4609375 7.07421875 C11.47511719 8.15574219 11.48929688 9.23726562 11.50390625 10.3515625 C11.2734375 13.13671875 11.2734375 13.13671875 9.2734375 15.13671875 C6.0859375 15.40234375 6.0859375 15.40234375 2.2734375 15.38671875 C1.0153125 15.391875 -0.2428125 15.39703125 -1.5390625 15.40234375 C-4.7265625 15.13671875 -4.7265625 15.13671875 -6.7265625 13.13671875 C-6.95703125 10.3515625 -6.95703125 10.3515625 -6.9140625 7.07421875 C-6.90761719 5.99011719 -6.90117188 4.90601563 -6.89453125 3.7890625 C-6.58894313 -1.03638708 -4.2984774 0.00775898 0 0 Z " fill="#95A7EC" transform="translate(64.7265625,208.86328125)"/>
<path d="M0 0 C2.51662648 0.06467965 4.99184871 0.1909155 7.5 0.375 C8.20253906 0.41882813 8.90507813 0.46265625 9.62890625 0.5078125 C14.87145769 0.87145769 14.87145769 0.87145769 16 2 C16.12238238 5.24313307 16.22562961 8.16517042 15.375 11.3125 C15.25125 11.869375 15.1275 12.42625 15 13 C15.66 13.66 16.32 14.32 17 15 C17 15.99 17 16.98 17 18 C14.03 18 11.06 18 8 18 C8 17.01 8 16.02 8 15 C6.329375 15.061875 6.329375 15.061875 4.625 15.125 C1 15 1 15 -1 13 C-1.23046875 10.21484375 -1.23046875 10.21484375 -1.1875 6.9375 C-1.18105469 5.85339844 -1.17460938 4.76929688 -1.16796875 3.65234375 C-1 1 -1 1 0 0 Z " fill="#E4BE56" transform="translate(34,522)"/>
<path d="M0 0 C2.53541298 0.09086451 5.03554784 0.2370945 7.5625 0.4375 C8.62887695 0.51581055 8.62887695 0.51581055 9.71679688 0.59570312 C11.47821999 0.72574107 13.23916173 0.86226897 15 1 C15 3.31 15 5.62 15 8 C13.35 8 11.7 8 10 8 C10.804375 8.2475 11.60875 8.495 12.4375 8.75 C15 10 15 10 15.75 11.875 C15.87375 12.926875 15.87375 12.926875 16 14 C16.33 15.32 16.66 16.64 17 18 C12.71 18 8.42 18 4 18 C4 17.01 4 16.02 4 15 C3.360625 14.855625 2.72125 14.71125 2.0625 14.5625 C0 14 0 14 -1 13 C-1.09873816 11.00200428 -1.12971799 9.00042842 -1.125 7 C-1.12757812 5.906875 -1.13015625 4.81375 -1.1328125 3.6875 C-1 1 -1 1 0 0 Z " fill="#E5BF59" transform="translate(34,544)"/>
<path d="M0 0 C2.51662648 0.06467965 4.99184871 0.1909155 7.5 0.375 C8.20253906 0.41882813 8.90507813 0.46265625 9.62890625 0.5078125 C14.87145769 0.87145769 14.87145769 0.87145769 16 2 C16.04320247 4.33293334 16.04022391 6.6670134 16 9 C16 9.99 16 10.98 16 12 C15.01 12.33 14.02 12.66 13 13 C11.79117904 15.00016466 11.79117904 15.00016466 11 17 C10.01 17 9.02 17 8 17 C8 16.34 8 15.68 8 15 C6.700625 14.855625 5.40125 14.71125 4.0625 14.5625 C0.125 14.125 0.125 14.125 -1 13 C-1.09873816 11.00200428 -1.12971799 9.00042842 -1.125 7 C-1.12757812 5.906875 -1.13015625 4.81375 -1.1328125 3.6875 C-1 1 -1 1 0 0 Z " fill="#E4BE55" transform="translate(34,499)"/>
<path d="M0 0 C0.99 0 1.98 0 3 0 C3 24.42 3 48.84 3 74 C2.01 74 1.02 74 0 74 C0 49.58 0 25.16 0 0 Z " fill="#DCDCDC" transform="translate(414,56)"/>
<path d="M0 0 C1.65 0.33 3.3 0.66 5 1 C5.33 2.32 5.66 3.64 6 5 C7.32 5.33 8.64 5.66 10 6 C9.979375 6.721875 9.95875 7.44375 9.9375 8.1875 C9.91643458 11.00835294 9.91643458 11.00835294 10.5625 13.75 C10.706875 14.4925 10.85125 15.235 11 16 C10 17 10 17 6.4375 17.0625 C5.303125 17.041875 4.16875 17.02125 3 17 C2.34 15.35 1.68 13.7 1 12 C0.236875 12.061875 -0.52625 12.12375 -1.3125 12.1875 C-4 12 -4 12 -5.875 10.75 C-7 9 -7 9 -7 6.9375 C-5.59721951 4.2196128 -3.79053713 4.04645142 -1 3 C-0.67 2.01 -0.34 1.02 0 0 Z " fill="#127B4B" transform="translate(40,162)"/>
<path d="M0 0 C1.32 0 2.64 0 4 0 C4 0.99 4 1.98 4 3 C4.99 3 5.98 3 7 3 C7 4.98 7 6.96 7 9 C7.66 9 8.32 9 9 9 C9 6.69 9 4.38 9 2 C9.99 2 10.98 2 12 2 C12 1.34 12 0.68 12 0 C13.65 0.33 15.3 0.66 17 1 C17 4.96 17 8.92 17 13 C16.34 13 15.68 13 15 13 C15 12.34 15 11.68 15 11 C10.38 11 5.76 11 1 11 C1 11.66 1 12.32 1 13 C0.34 13 -0.32 13 -1 13 C-1.02686553 11.02090602 -1.04633375 9.04171029 -1.0625 7.0625 C-1.07410156 5.96035156 -1.08570312 4.85820312 -1.09765625 3.72265625 C-1 1 -1 1 0 0 Z " fill="#48C15B" transform="translate(109,276)"/>
<path d="M0 0 C2.51662648 0.06467965 4.99184871 0.1909155 7.5 0.375 C8.20253906 0.41882813 8.90507813 0.46265625 9.62890625 0.5078125 C14.87145769 0.87145769 14.87145769 0.87145769 16 2 C16.04080783 3.99958364 16.04254356 6.00045254 16 8 C12.7 8.33 9.4 8.66 6 9 C5.67 10.65 5.34 12.3 5 14 C3.33388095 14.042721 1.66617115 14.04063832 0 14 C-1 13 -1 13 -1.1328125 10.3125 C-1.13023438 9.219375 -1.12765625 8.12625 -1.125 7 C-1.12757812 5.906875 -1.13015625 4.81375 -1.1328125 3.6875 C-1 1 -1 1 0 0 Z " fill="#F5F8FC" transform="translate(34,184)"/>
<path d="M0 0 C0.99 0 1.98 0 3 0 C3 17.16 3 34.32 3 52 C2.01 52 1.02 52 0 52 C0 34.84 0 17.68 0 0 Z " fill="#DADADA" transform="translate(414,512)"/>
<path d="M0 0 C0.9075 0.00257813 1.815 0.00515625 2.75 0.0078125 C4.11125 0.00394531 4.11125 0.00394531 5.5 0 C7.75 0.1328125 7.75 0.1328125 8.75 1.1328125 C8.84823937 2.79710301 8.87973631 4.46563181 8.875 6.1328125 C8.87757812 7.0403125 8.88015625 7.9478125 8.8828125 8.8828125 C8.75 11.1328125 8.75 11.1328125 7.75 12.1328125 C6.08570949 12.23105187 4.41718069 12.26254881 2.75 12.2578125 C1.38875 12.26167969 1.38875 12.26167969 0 12.265625 C-2.25 12.1328125 -2.25 12.1328125 -3.25 11.1328125 C-3.34823937 9.46852199 -3.37973631 7.79999319 -3.375 6.1328125 C-3.37757812 5.2253125 -3.38015625 4.3178125 -3.3828125 3.3828125 C-3.20347538 0.34463064 -3.03818186 0.17933712 0 0 Z " fill="#FFFFFF" transform="translate(89.25,434.8671875)"/>
<path d="M0 0 C0.9075 0.00257813 1.815 0.00515625 2.75 0.0078125 C4.11125 0.00394531 4.11125 0.00394531 5.5 0 C7.75 0.1328125 7.75 0.1328125 8.75 1.1328125 C8.84823937 2.79710301 8.87973631 4.46563181 8.875 6.1328125 C8.87757812 7.0403125 8.88015625 7.9478125 8.8828125 8.8828125 C8.75 11.1328125 8.75 11.1328125 7.75 12.1328125 C6.08570949 12.23105187 4.41718069 12.26254881 2.75 12.2578125 C1.38875 12.26167969 1.38875 12.26167969 0 12.265625 C-2.25 12.1328125 -2.25 12.1328125 -3.25 11.1328125 C-3.34823937 9.46852199 -3.37973631 7.79999319 -3.375 6.1328125 C-3.37757812 5.2253125 -3.38015625 4.3178125 -3.3828125 3.3828125 C-3.20347538 0.34463064 -3.03818186 0.17933712 0 0 Z " fill="#FFFFFF" transform="translate(89.25,231.8671875)"/>
<path d="M0 0 C1.423125 -0.061875 2.84625 -0.12375 4.3125 -0.1875 C5.51326172 -0.23970703 5.51326172 -0.23970703 6.73828125 -0.29296875 C9 0 9 0 10.78125 1.21875 C13.03892731 4.51843223 12.1684545 8.12554658 12 12 C8.04 12 4.08 12 0 12 C0 8.04 0 4.08 0 0 Z " fill="#6F6F6F" transform="translate(108,257)"/>
<path d="M0 0 C0.66 0 1.32 0 2 0 C2.33 1.65 2.66 3.3 3 5 C3.99 5 4.98 5 6 5 C5.67 5.66 5.34 6.32 5 7 C5.66 7 6.32 7 7 7 C7.33 5.35 7.66 3.7 8 2 C12.75 0.875 12.75 0.875 15 2 C15 1.34 15 0.68 15 0 C15.66 0 16.32 0 17 0 C17.33 3.63 17.66 7.26 18 11 C8.08188976 11.1480315 8.08188976 11.1480315 4 10 C3.67 9.67 3.34 9.34 3 9 C2.67 9.66 2.34 10.32 2 11 C1.34 11 0.68 11 0 11 C0 7.37 0 3.74 0 0 Z " fill="#67656B" transform="translate(106,74)"/>
<path d="M0 0 C4.29 0 8.58 0 13 0 C12.67 3.63 12.34 7.26 12 11 C8.37 11 4.74 11 1 11 C0.67 7.37 0.34 3.74 0 0 Z " fill="#D18F2E" transform="translate(38,124)"/>
<path d="M0 0 C4.29 0 8.58 0 13 0 C12.67 1.98 12.34 3.96 12 6 C8.7 6 5.4 6 2 6 C2 6.66 2 7.32 2 8 C3.32 8 4.64 8 6 8 C6 8.66 6 9.32 6 10 C4.68 10 3.36 10 2 10 C2 10.66 2 11.32 2 12 C3.32 12 4.64 12 6 12 C6 12.99 6 13.98 6 15 C3.69 15 1.38 15 -1 15 C-1.02693575 12.87506859 -1.04636628 10.75004088 -1.0625 8.625 C-1.07410156 7.44164062 -1.08570312 6.25828125 -1.09765625 5.0390625 C-1 2 -1 2 0 0 Z " fill="#3657DC" transform="translate(110,454)"/>
<path d="M0 0 C1.12535156 0.00580078 1.12535156 0.00580078 2.2734375 0.01171875 C3.02367188 0.00785156 3.77390625 0.00398437 4.546875 0 C10.14682697 0.01010822 10.14682697 0.01010822 11.2734375 1.13671875 C11.39858678 3.11291322 11.4491651 5.09410048 11.4609375 7.07421875 C11.47511719 8.15574219 11.48929688 9.23726562 11.50390625 10.3515625 C11.2734375 13.13671875 11.2734375 13.13671875 9.2734375 15.13671875 C6.0859375 15.40234375 6.0859375 15.40234375 2.2734375 15.38671875 C1.0153125 15.391875 -0.2428125 15.39703125 -1.5390625 15.40234375 C-4.7265625 15.13671875 -4.7265625 15.13671875 -6.7265625 13.13671875 C-6.95703125 10.3515625 -6.95703125 10.3515625 -6.9140625 7.07421875 C-6.90761719 5.99011719 -6.90117188 4.90601563 -6.89453125 3.7890625 C-6.58894313 -1.03638708 -4.2984774 0.00775898 0 0 Z M-4.7265625 3.13671875 C-4.7265625 6.43671875 -4.7265625 9.73671875 -4.7265625 13.13671875 C-0.1065625 13.13671875 4.5134375 13.13671875 9.2734375 13.13671875 C9.2734375 9.83671875 9.2734375 6.53671875 9.2734375 3.13671875 C4.6534375 3.13671875 0.0334375 3.13671875 -4.7265625 3.13671875 Z " fill="#778DE7" transform="translate(64.7265625,208.86328125)"/>
<path d="M0 0 C4.29 0 8.58 0 13 0 C13 0.66 13 1.32 13 2 C11.35 2 9.7 2 8 2 C8 5.3 8 8.6 8 12 C8.99 11.01 9.98 10.02 11 9 C13.6875 8.8125 13.6875 8.8125 16 9 C15.75 11.375 15.75 11.375 15 14 C12.9375 15.3125 12.9375 15.3125 11 16 C10.01 15.34 9.02 14.68 8 14 C8 14.66 8 15.32 8 16 C6.68 16 5.36 16 4 16 C4 11.38 4 6.76 4 2 C2.68 2 1.36 2 0 2 C0 1.34 0 0.68 0 0 Z " fill="#4B68DD" transform="translate(109,478)"/>
<path d="M0 0 C4.29 0 8.58 0 13 0 C13 0.66 13 1.32 13 2 C11.35 2 9.7 2 8 2 C8 5.3 8 8.6 8 12 C8.99 11.01 9.98 10.02 11 9 C13.6875 8.8125 13.6875 8.8125 16 9 C15.75 11.375 15.75 11.375 15 14 C12.9375 15.3125 12.9375 15.3125 11 16 C10.01 15.34 9.02 14.68 8 14 C8 14.66 8 15.32 8 16 C6.68 16 5.36 16 4 16 C4 11.38 4 6.76 4 2 C2.68 2 1.36 2 0 2 C0 1.34 0 0.68 0 0 Z " fill="#4B68DD" transform="translate(109,410)"/>
<path d="M0 0 C4.29 0 8.58 0 13 0 C13 0.66 13 1.32 13 2 C11.35 2 9.7 2 8 2 C8 5.3 8 8.6 8 12 C8.99 11.01 9.98 10.02 11 9 C13.6875 8.8125 13.6875 8.8125 16 9 C15.75 11.375 15.75 11.375 15 14 C12.9375 15.3125 12.9375 15.3125 11 16 C10.01 15.34 9.02 14.68 8 14 C8 14.66 8 15.32 8 16 C6.68 16 5.36 16 4 16 C4 11.38 4 6.76 4 2 C2.68 2 1.36 2 0 2 C0 1.34 0 0.68 0 0 Z " fill="#4B68DD" transform="translate(134,388)"/>
<path d="M0 0 C4.29 0 8.58 0 13 0 C13 0.66 13 1.32 13 2 C11.35 2 9.7 2 8 2 C8 5.3 8 8.6 8 12 C8.99 11.01 9.98 10.02 11 9 C13.6875 8.8125 13.6875 8.8125 16 9 C15.75 11.375 15.75 11.375 15 14 C12.9375 15.3125 12.9375 15.3125 11 16 C10.01 15.34 9.02 14.68 8 14 C8 14.66 8 15.32 8 16 C6.68 16 5.36 16 4 16 C4 11.38 4 6.76 4 2 C2.68 2 1.36 2 0 2 C0 1.34 0 0.68 0 0 Z " fill="#4B68DD" transform="translate(109,365)"/>
<path d="M0 0 C4.29 0 8.58 0 13 0 C13 0.66 13 1.32 13 2 C11.35 2 9.7 2 8 2 C8 5.3 8 8.6 8 12 C8.99 11.01 9.98 10.02 11 9 C13.6875 8.8125 13.6875 8.8125 16 9 C15.75 11.375 15.75 11.375 15 14 C12.9375 15.3125 12.9375 15.3125 11 16 C10.01 15.34 9.02 14.68 8 14 C8 14.66 8 15.32 8 16 C6.68 16 5.36 16 4 16 C4 11.38 4 6.76 4 2 C2.68 2 1.36 2 0 2 C0 1.34 0 0.68 0 0 Z " fill="#4B68DD" transform="translate(109,343)"/>
<path d="M0 0 C4.29 0 8.58 0 13 0 C13 0.66 13 1.32 13 2 C11.35 2 9.7 2 8 2 C8 5.3 8 8.6 8 12 C8.99 11.01 9.98 10.02 11 9 C13.6875 8.8125 13.6875 8.8125 16 9 C15.75 11.375 15.75 11.375 15 14 C12.9375 15.3125 12.9375 15.3125 11 16 C10.01 15.34 9.02 14.68 8 14 C8 14.66 8 15.32 8 16 C6.68 16 5.36 16 4 16 C4 11.38 4 6.76 4 2 C2.68 2 1.36 2 0 2 C0 1.34 0 0.68 0 0 Z " fill="#4B68DD" transform="translate(109,320)"/>
<path d="M0 0 C1.65 0.33 3.3 0.66 5 1 C5.33 2.32 5.66 3.64 6 5 C7.32 5.33 8.64 5.66 10 6 C10 6.66 10 7.32 10 8 C7.03 8 4.06 8 1 8 C1 8.99 1 9.98 1 11 C-1.875 11.125 -1.875 11.125 -5 11 C-5.66 10.34 -6.32 9.68 -7 9 C-6.9375 7 -6.9375 7 -6 5 C-4.34795544 4.29788106 -2.68076231 3.63028587 -1 3 C-0.67 2.01 -0.34 1.02 0 0 Z " fill="#218356" transform="translate(40,139)"/>
<path d="M0 0 C2.64 0 5.28 0 8 0 C9.25768711 3.01844907 10.20197185 5.8078874 11 9 C6.71 9 2.42 9 -2 9 C-2 8.01 -2 7.02 -2 6 C-2.99 5.67 -3.98 5.34 -5 5 C-4.01 4.67 -3.02 4.34 -2 4 C-0.79117904 1.99983534 -0.79117904 1.99983534 0 0 Z " fill="#747471" transform="translate(40,553)"/>
<path d="M0 0 C2.05078125 0.03255208 4.1015625 0.06510417 6.15234375 0.09765625 C6.15234375 1.08765625 6.15234375 2.07765625 6.15234375 3.09765625 C6.81234375 3.42765625 7.47234375 3.75765625 8.15234375 4.09765625 C7.49234375 4.09765625 6.83234375 4.09765625 6.15234375 4.09765625 C6.15234375 5.74765625 6.15234375 7.39765625 6.15234375 9.09765625 C6.81234375 9.42765625 7.47234375 9.75765625 8.15234375 10.09765625 C6.5281563 10.17856596 4.9028263 10.2368062 3.27734375 10.28515625 C1.91996094 10.33736328 1.91996094 10.33736328 0.53515625 10.390625 C-0.64433594 10.24560547 -0.64433594 10.24560547 -1.84765625 10.09765625 C-3.84765625 7.09765625 -3.84765625 7.09765625 -3.53515625 3.97265625 C-2.61826557 0.13838613 -2.61826557 0.13838613 0 0 Z " fill="#ABA09F" transform="translate(154.84765625,35.90234375)"/>
<path d="M0 0 C3.3 0 6.6 0 10 0 C10.09765625 6.15234375 10.09765625 6.15234375 10 8 C9 9 9 9 6.93359375 9.09765625 C3.46679688 9.04882812 3.46679688 9.04882812 0 9 C0 6.03 0 3.06 0 0 Z " fill="#DAE5F5" transform="translate(41,193)"/>
<path d="M0 0 C0.78375 0.144375 1.5675 0.28875 2.375 0.4375 C4.375 3.4375 4.375 3.4375 4 6.125 C3.79375 6.888125 3.5875 7.65125 3.375 8.4375 C2.715 7.4475 2.055 6.4575 1.375 5.4375 C0.385 5.4375 -0.605 5.4375 -1.625 5.4375 C-2.285 6.7575 -2.945 8.0775 -3.625 9.4375 C-2.965 9.7675 -2.305 10.0975 -1.625 10.4375 C-1.295 8.7875 -0.965 7.1375 -0.625 5.4375 C1.375 7.4375 1.375 7.4375 1.5703125 10.0390625 C1.54710937 11.03679687 1.52390625 12.03453125 1.5 13.0625 C1.48195313 14.06539062 1.46390625 15.06828125 1.4453125 16.1015625 C1.41050781 17.25785156 1.41050781 17.25785156 1.375 18.4375 C0.385 18.4375 -0.605 18.4375 -1.625 18.4375 C-1.625 16.4575 -1.625 14.4775 -1.625 12.4375 C-2.264375 12.128125 -2.90375 11.81875 -3.5625 11.5 C-5.625 10.4375 -5.625 10.4375 -6.625 9.4375 C-7.06937646 6.14911423 -6.9194593 4.84101831 -4.9375 2.125 C-2.625 0.4375 -2.625 0.4375 0 0 Z " fill="#42A7C6" transform="translate(39.625,71.5625)"/>
<path d="M0 0 C0.33 0 0.66 0 1 0 C1.12567325 6.53500898 1.12567325 6.53500898 0.375 9.3125 C0.25125 9.869375 0.1275 10.42625 0 11 C0.66 11.66 1.32 12.32 2 13 C2 13.99 2 14.98 2 16 C-0.97 16 -3.94 16 -7 16 C-7 15.01 -7 14.02 -7 13 C-9.31 13 -11.62 13 -14 13 C-14 12.67 -14 12.34 -14 12 C-11.36 12 -8.72 12 -6 12 C-6.020625 11.195625 -6.04125 10.39125 -6.0625 9.5625 C-6 7 -6 7 -5 6 C-3.33382885 5.95936168 -1.66611905 5.957279 0 6 C0 4.02 0 2.04 0 0 Z " fill="#D3CEC2" transform="translate(49,524)"/>
<path d="M0 0 C0.33 0.99 0.66 1.98 1 3 C1.99 3 2.98 3 4 3 C4 2.34 4 1.68 4 1 C5.98 0.67 7.96 0.34 10 0 C10.33 0.66 10.66 1.32 11 2 C10.01 2 9.02 2 8 2 C8 2.66 8 3.32 8 4 C8.99 4.66 9.98 5.32 11 6 C11 6.99 11 7.98 11 9 C7.27569643 9.69289369 3.78916254 10.11144596 0 10 C-1.125 3.375 -1.125 3.375 0 0 Z " fill="#8D8A94" transform="translate(133,143)"/>
<path d="M0 0 C0.94238698 2.82716095 1.13465647 4.63176123 1.125 7.5625 C1.12757813 8.34753906 1.13015625 9.13257813 1.1328125 9.94140625 C1 12 1 12 0 14 C-0.66 13.67 -1.32 13.34 -2 13 C-2 12.34 -2 11.68 -2 11 C-2.66 11 -3.32 11 -4 11 C-4.66 10.34 -5.32 9.68 -6 9 C-6.33 9.66 -6.66 10.32 -7 11 C-7.99 10.67 -8.98 10.34 -10 10 C-9.649375 9.2575 -9.29875 8.515 -8.9375 7.75 C-7.95490707 4.8677274 -7.9673198 3.78823655 -9 1 C-8.34 1.33 -7.68 1.66 -7 2 C-7 2.66 -7 3.32 -7 4 C-6.34 4 -5.68 4 -5 4 C-4.67 3.01 -4.34 2.02 -4 1 C-2 0 -2 0 0 0 Z " fill="#B9B2B7" transform="translate(226,35)"/>
<path d="M0 0 C0.66 0 1.32 0 2 0 C2.66 0.66 3.32 1.32 4 2 C6.10820797 1.6814823 6.10820797 1.6814823 8 1 C8.625 3.3125 8.625 3.3125 9 6 C8.01 7.485 8.01 7.485 7 9 C7.99 9.66 8.98 10.32 10 11 C8.52093108 11.02689216 7.04172517 11.04634621 5.5625 11.0625 C4.32693359 11.07990234 4.32693359 11.07990234 3.06640625 11.09765625 C1 11 1 11 0 10 C-0.07205511 8.31391034 -0.08386068 6.62499341 -0.0625 4.9375 C-0.05347656 4.01839844 -0.04445312 3.09929687 -0.03515625 2.15234375 C-0.02355469 1.44207031 -0.01195312 0.73179687 0 0 Z " fill="#95918F" transform="translate(216,389)"/>
<path d="M0 0 C0.9075 0.00257812 1.815 0.00515625 2.75 0.0078125 C4.11125 0.00394531 4.11125 0.00394531 5.5 0 C7.75 0.1328125 7.75 0.1328125 8.75 1.1328125 C8.79080783 3.13239614 8.79254356 5.13326504 8.75 7.1328125 C6.95866022 7.18673243 5.16686101 7.22556821 3.375 7.2578125 C2.37726563 7.28101563 1.37953125 7.30421875 0.3515625 7.328125 C-2.25 7.1328125 -2.25 7.1328125 -4.25 5.1328125 C-3.50363627 0.20681186 -3.50363627 0.20681186 0 0 Z " fill="#A9A8A8" transform="translate(95.25,122.8671875)"/>
<path d="M0 0 C0.9075 0.00257812 1.815 0.00515625 2.75 0.0078125 C4.11125 0.00394531 4.11125 0.00394531 5.5 0 C7.75 0.1328125 7.75 0.1328125 8.75 1.1328125 C8.79080783 3.13239614 8.79254356 5.13326504 8.75 7.1328125 C6.95866022 7.18673243 5.16686101 7.22556821 3.375 7.2578125 C2.37726563 7.28101562 1.37953125 7.30421875 0.3515625 7.328125 C-2.25 7.1328125 -2.25 7.1328125 -4.25 5.1328125 C-3.50363627 0.20681186 -3.50363627 0.20681186 0 0 Z " fill="#A9A8A8" transform="translate(95.25,100.8671875)"/>
<path d="M0 0 C-0.99 0.495 -0.99 0.495 -2 1 C-2.66 0.67 -3.32 0.34 -4 0 C-3.24849977 3.27773504 -3.24849977 3.27773504 0 5 C-0.33 6.32 -0.66 7.64 -1 9 C-7.875 8.125 -7.875 8.125 -9 7 C-9.33 7.66 -9.66 8.32 -10 9 C-10.66 9 -11.32 9 -12 9 C-12 6.69 -12 4.38 -12 2 C-10.35 2 -8.7 2 -7 2 C-7 1.34 -7 0.68 -7 0 C-4.3333581 -1.33332095 -2.83319697 -0.67102033 0 0 Z " fill="#9F9C9B" transform="translate(107,144)"/>
<path d="M0 0 C6.15234375 -0.09765625 6.15234375 -0.09765625 8 0 C9 1 9 1 9.125 4.5 C9 8 9 8 8 9 C4.5 9.125 4.5 9.125 1 9 C0 8 0 8 -0.09765625 6.15234375 C-0.06510417 4.1015625 -0.03255208 2.05078125 0 0 Z " fill="#727272" transform="translate(42,81)"/>
<path d="M0 0 C6.15234375 -0.09765625 6.15234375 -0.09765625 8 0 C9 1 9 1 9.125 4.5 C9 8 9 8 8 9 C4.5 9.125 4.5 9.125 1 9 C0 8 0 8 -0.09765625 6.15234375 C-0.06510417 4.1015625 -0.03255208 2.05078125 0 0 Z " fill="#727272" transform="translate(42,58)"/>
<path d="M0 0 C2.68685763 0.51178241 4.05347214 0.23472225 6.625 -0.5 C7.625 0.5 7.625 0.5 7.6875 3.5625 C7.666875 4.531875 7.64625 5.50125 7.625 6.5 C5.81257948 6.52687279 4.00004767 6.54633715 2.1875 6.5625 C1.17816406 6.57410156 0.16882813 6.58570313 -0.87109375 6.59765625 C-3.375 6.5 -3.375 6.5 -4.375 5.5 C-4.41563832 3.83382885 -4.417721 2.16611905 -4.375 0.5 C-2.375 -0.5 -2.375 -0.5 0 0 Z " fill="#958E8E" transform="translate(154.375,461.5)"/>
<path d="M0 0 C0.33 0.99 0.66 1.98 1 3 C1.66 3 2.32 3 3 3 C3.33 2.01 3.66 1.02 4 0 C4.66 0 5.32 0 6 0 C6 2.97 6 5.94 6 9 C7.32 9.33 8.64 9.66 10 10 C8.52093108 10.02689216 7.04172517 10.04634621 5.5625 10.0625 C4.32693359 10.07990234 4.32693359 10.07990234 3.06640625 10.09765625 C1 10 1 10 0 9 C-0.04063832 7.33382885 -0.042721 5.66611905 0 4 C-0.99 4.495 -0.99 4.495 -2 5 C-1.67 6.65 -1.34 8.3 -1 10 C-2.65 9.67 -4.3 9.34 -6 9 C-6.33 7.02 -6.66 5.04 -7 3 C-4.66666667 3 -2.33333333 3 0 3 C0 2.01 0 1.02 0 0 Z " fill="#4A4A5D" transform="translate(156,480)"/>
<path d="M0 0 C0.33 0.99 0.66 1.98 1 3 C1.66 3 2.32 3 3 3 C3.33 2.01 3.66 1.02 4 0 C4.66 0 5.32 0 6 0 C6 2.97 6 5.94 6 9 C7.32 9.33 8.64 9.66 10 10 C8.52093108 10.02689216 7.04172517 10.04634621 5.5625 10.0625 C4.32693359 10.07990234 4.32693359 10.07990234 3.06640625 10.09765625 C1 10 1 10 0 9 C-0.04063832 7.33382885 -0.042721 5.66611905 0 4 C-0.99 4.495 -0.99 4.495 -2 5 C-1.67 6.65 -1.34 8.3 -1 10 C-2.65 9.67 -4.3 9.34 -6 9 C-6.33 7.02 -6.66 5.04 -7 3 C-4.66666667 3 -2.33333333 3 0 3 C0 2.01 0 1.02 0 0 Z " fill="#4A4A5D" transform="translate(156,413)"/>
<path d="M0 0 C0.33 0.99 0.66 1.98 1 3 C1.66 3 2.32 3 3 3 C3.33 2.01 3.66 1.02 4 0 C4.66 0 5.32 0 6 0 C6 2.97 6 5.94 6 9 C7.32 9.33 8.64 9.66 10 10 C8.52093108 10.02689216 7.04172517 10.04634621 5.5625 10.0625 C4.32693359 10.07990234 4.32693359 10.07990234 3.06640625 10.09765625 C1 10 1 10 0 9 C-0.04063832 7.33382885 -0.042721 5.66611905 0 4 C-0.99 4.495 -0.99 4.495 -2 5 C-1.67 6.65 -1.34 8.3 -1 10 C-2.65 9.67 -4.3 9.34 -6 9 C-6.33 7.02 -6.66 5.04 -7 3 C-4.66666667 3 -2.33333333 3 0 3 C0 2.01 0 1.02 0 0 Z " fill="#4A4A5D" transform="translate(181,390)"/>
<path d="M0 0 C0.33 0.99 0.66 1.98 1 3 C1.66 3 2.32 3 3 3 C3.33 2.01 3.66 1.02 4 0 C4.66 0 5.32 0 6 0 C6 2.97 6 5.94 6 9 C7.32 9.33 8.64 9.66 10 10 C8.52093108 10.02689216 7.04172517 10.04634621 5.5625 10.0625 C4.32693359 10.07990234 4.32693359 10.07990234 3.06640625 10.09765625 C1 10 1 10 0 9 C-0.04063832 7.33382885 -0.042721 5.66611905 0 4 C-0.99 4.495 -0.99 4.495 -2 5 C-1.67 6.65 -1.34 8.3 -1 10 C-2.65 9.67 -4.3 9.34 -6 9 C-6.33 7.02 -6.66 5.04 -7 3 C-4.66666667 3 -2.33333333 3 0 3 C0 2.01 0 1.02 0 0 Z " fill="#4A4A5D" transform="translate(156,368)"/>
<path d="M0 0 C0.33 0.99 0.66 1.98 1 3 C1.66 3 2.32 3 3 3 C3.33 2.01 3.66 1.02 4 0 C4.66 0 5.32 0 6 0 C6 2.97 6 5.94 6 9 C7.32 9.33 8.64 9.66 10 10 C8.52093108 10.02689216 7.04172517 10.04634621 5.5625 10.0625 C4.32693359 10.07990234 4.32693359 10.07990234 3.06640625 10.09765625 C1 10 1 10 0 9 C-0.04063832 7.33382885 -0.042721 5.66611905 0 4 C-0.99 4.495 -0.99 4.495 -2 5 C-1.67 6.65 -1.34 8.3 -1 10 C-2.65 9.67 -4.3 9.34 -6 9 C-6.33 7.02 -6.66 5.04 -7 3 C-4.66666667 3 -2.33333333 3 0 3 C0 2.01 0 1.02 0 0 Z " fill="#4A4A5D" transform="translate(156,345)"/>
<path d="M0 0 C0.33 0.99 0.66 1.98 1 3 C1.66 3 2.32 3 3 3 C3.33 2.01 3.66 1.02 4 0 C4.66 0 5.32 0 6 0 C6 2.97 6 5.94 6 9 C7.32 9.33 8.64 9.66 10 10 C8.52093108 10.02689216 7.04172517 10.04634621 5.5625 10.0625 C4.32693359 10.07990234 4.32693359 10.07990234 3.06640625 10.09765625 C1 10 1 10 0 9 C-0.04063832 7.33382885 -0.042721 5.66611905 0 4 C-0.99 4.495 -0.99 4.495 -2 5 C-1.67 6.65 -1.34 8.3 -1 10 C-2.65 9.67 -4.3 9.34 -6 9 C-6.33 7.02 -6.66 5.04 -7 3 C-4.66666667 3 -2.33333333 3 0 3 C0 2.01 0 1.02 0 0 Z " fill="#4A4A5D" transform="translate(156,323)"/>
<path d="M0 0 C0.99 0 1.98 0 3 0 C3 1.32 3 2.64 3 4 C3.99 4.33 4.98 4.66 6 5 C5.01 5.33 4.02 5.66 3 6 C2.67 7.65 2.34 9.3 2 11 C0.68 10.67 -0.64 10.34 -2 10 C-2 9.01 -2 8.02 -2 7 C-4.475 6.01 -4.475 6.01 -7 5 C-6.67 3.68 -6.34 2.36 -6 1 C-3.03 1.495 -3.03 1.495 0 2 C0 1.34 0 0.68 0 0 Z " fill="#A9AAA5" transform="translate(188,35)"/>
<path d="M0 0 C2.64 0 5.28 0 8 0 C8 0.99 8 1.98 8 3 C8.66 3.33 9.32 3.66 10 4 C9.34 4 8.68 4 8 4 C8 5.65 8 7.3 8 9 C8.66 9.33 9.32 9.66 10 10 C9.195625 9.814375 8.39125 9.62875 7.5625 9.4375 C6.716875 9.293125 5.87125 9.14875 5 9 C4.67 9.33 4.34 9.66 4 10 C2.33382885 10.04063832 0.66611905 10.042721 -1 10 C-1.33 9.34 -1.66 8.68 -2 8 C0.475 8.495 0.475 8.495 3 9 C2.24849977 5.72226496 2.24849977 5.72226496 -1 4 C-0.67 2.68 -0.34 1.36 0 0 Z " fill="#77767F" transform="translate(102,165)"/>
<path d="M0 0 C2.64 0 5.28 0 8 0 C7.125 7.875 7.125 7.875 6 9 C3.66702567 9.04092937 1.33294775 9.04241723 -1 9 C-0.67 6.03 -0.34 3.06 0 0 Z " fill="#343434" transform="translate(42,148)"/>
<path d="M0 0 C1.32 0 2.64 0 4 0 C4 0.66 4 1.32 4 2 C4.99 1.67 5.98 1.34 7 1 C7 1.66 7 2.32 7 3 C7.99 3 8.98 3 10 3 C10.33 2.34 10.66 1.68 11 1 C11 2.98 11 4.96 11 7 C9.18757948 7.02687279 7.37504767 7.04633715 5.5625 7.0625 C4.55316406 7.07410156 3.54382813 7.08570313 2.50390625 7.09765625 C0 7 0 7 -1 6 C-1.125 3.5 -1.125 3.5 -1 1 C-0.67 0.67 -0.34 0.34 0 0 Z " fill="#A09FA2" transform="translate(170,146)"/>
<path d="M0 0 C0.66 0 1.32 0 2 0 C2 1.65 2 3.3 2 5 C2.969375 4.814375 3.93875 4.62875 4.9375 4.4375 C6.4534375 4.2209375 6.4534375 4.2209375 8 4 C9 5 9 5 9.0625 8.0625 C9.041875 9.031875 9.02125 10.00125 9 11 C6 11 3 11 0 11 C0 7.37 0 3.74 0 0 Z " fill="#867D79" transform="translate(111,524)"/>
<path d="M0 0 C1.22589844 0.01353516 1.22589844 0.01353516 2.4765625 0.02734375 C3.41628906 0.04474609 3.41628906 0.04474609 4.375 0.0625 C3.715 2.3725 3.055 4.6825 2.375 7.0625 C-3.77734375 7.16015625 -3.77734375 7.16015625 -5.625 7.0625 C-6.625 6.0625 -6.625 6.0625 -6.6875 3.5 C-6.666875 2.695625 -6.64625 1.89125 -6.625 1.0625 C-4.21954362 -0.14022819 -2.67503047 -0.03821472 0 0 Z " fill="#ABABAD" transform="translate(182.625,460.9375)"/>
<path d="M0 0 C2.64 0 5.28 0 8 0 C8 0.99 8 1.98 8 3 C8.66 3.33 9.32 3.66 10 4 C10 5.98 10 7.96 10 10 C7.03 9.505 7.03 9.505 4 9 C4 8.01 4 7.02 4 6 C1.525 5.01 1.525 5.01 -1 4 C-0.67 2.68 -0.34 1.36 0 0 Z " fill="#979898" transform="translate(61,525)"/>
<path d="M0 0 C2.64 0 5.28 0 8 0 C8 0.99 8 1.98 8 3 C8.66 3.33 9.32 3.66 10 4 C10 5.98 10 7.96 10 10 C7.03 9.505 7.03 9.505 4 9 C4 8.01 4 7.02 4 6 C1.525 5.01 1.525 5.01 -1 4 C-0.67 2.68 -0.34 1.36 0 0 Z " fill="#979898" transform="translate(61,503)"/>
<path d="M0 0 C0.33 0 0.66 0 1 0 C1 3.33333333 1 6.66666667 1 10 C0.01 10.33 -0.98 10.66 -2 11 C-3.20882096 13.00016466 -3.20882096 13.00016466 -4 15 C-4.99 15 -5.98 15 -7 15 C-6.835 14.0925 -6.67 13.185 -6.5 12.25 C-5.89862854 8.88912497 -5.89862854 8.88912497 -6 5 C-2.25 3.875 -2.25 3.875 0 5 C0 3.35 0 1.7 0 0 Z " fill="#A29D90" transform="translate(49,501)"/>
<path d="M0 0 C1.32 0 2.64 0 4 0 C4 0.99 4 1.98 4 3 C4.99 3 5.98 3 7 3 C7 5.31 7 7.62 7 10 C4.69 10 2.38 10 0 10 C0 6.7 0 3.4 0 0 Z " fill="#00A91B" transform="translate(109,276)"/>
<path d="M0 0 C3.63 0 7.26 0 11 0 C10.67 1.32 10.34 2.64 10 4 C9.01 4.33 8.02 4.66 7 5 C7 6.98 7 8.96 7 11 C6.34 11 5.68 11 5 11 C4.731875 10.05125 4.46375 9.1025 4.1875 8.125 C3.25013412 4.74732727 3.25013412 4.74732727 0 3 C0 2.01 0 1.02 0 0 Z " fill="#676767" transform="translate(9,37)"/>
<path d="M0 0 C1.66666667 0.33333333 3.33333333 0.66666667 5 1 C5.33 0.67 5.66 0.34 6 0 C7.66617115 -0.04063832 9.33388095 -0.042721 11 0 C10.34 0.66 9.68 1.32 9 2 C8.35232207 4.57061311 8.35232207 4.57061311 8 7 C1.84765625 7.09765625 1.84765625 7.09765625 0 7 C-1 6 -1 6 -1.125 3.5 C-1 1 -1 1 0 0 Z " fill="#989C9E" transform="translate(91,528)"/>
<path d="M0 0 C1.66666667 0.33333333 3.33333333 0.66666667 5 1 C5.33 0.67 5.66 0.34 6 0 C7.66617115 -0.04063832 9.33388095 -0.042721 11 0 C10.34 0.66 9.68 1.32 9 2 C8.35232207 4.57061311 8.35232207 4.57061311 8 7 C1.84765625 7.09765625 1.84765625 7.09765625 0 7 C-1 6 -1 6 -1.125 3.5 C-1 1 -1 1 0 0 Z " fill="#989C9E" transform="translate(91,506)"/>
<path d="M0 0 C1.66666667 0.33333333 3.33333333 0.66666667 5 1 C5.33 0.67 5.66 0.34 6 0 C7.66617115 -0.04063832 9.33388095 -0.042721 11 0 C10.34 0.66 9.68 1.32 9 2 C8.35232207 4.57061311 8.35232207 4.57061311 8 7 C1.84765625 7.09765625 1.84765625 7.09765625 0 7 C-1 6 -1 6 -1.125 3.5 C-1 1 -1 1 0 0 Z " fill="#989C9E" transform="translate(62,39)"/>
<path d="M0 0 C1.99954746 -0.04254356 4.00041636 -0.04080783 6 0 C7 1 7 1 7.0625 4.0625 C7.041875 5.031875 7.02125 6.00125 7 7 C5.35 7.33 3.7 7.66 2 8 C2 8.99 2 9.98 2 11 C1.34 11 0.68 11 0 11 C0 7.37 0 3.74 0 0 Z " fill="#7F7976" transform="translate(184,11)"/>
<path d="M0 0 C4.62 0 9.24 0 14 0 C14.33 0.99 14.66 1.98 15 3 C14 4 14 4 10.83984375 4.09765625 C8.90818359 4.08025391 8.90818359 4.08025391 6.9375 4.0625 C5.64714844 4.05347656 4.35679688 4.04445313 3.02734375 4.03515625 C2.02832031 4.02355469 1.02929688 4.01195312 0 4 C-0.33 3.34 -0.66 2.68 -1 2 C-0.67 1.34 -0.34 0.68 0 0 Z " fill="#A8E1B1" transform="translate(110,287)"/>
<path d="M0 0 C1.67004829 0.31595508 3.33637583 0.65179959 5 1 C6.32 1 7.64 1 9 1 C8.67 2.98 8.34 4.96 8 7 C1.84765625 7.09765625 1.84765625 7.09765625 0 7 C-1 6 -1 6 -1.125 3.5 C-1 1 -1 1 0 0 Z " fill="#D0DDF1" transform="translate(91,191)"/>
<path d="M0 0 C1.37478516 0.01740234 1.37478516 0.01740234 2.77734375 0.03515625 C3.69644531 0.04417969 4.61554688 0.05320313 5.5625 0.0625 C6.27277344 0.07410156 6.98304687 0.08570313 7.71484375 0.09765625 C7.05484375 0.75765625 6.39484375 1.41765625 5.71484375 2.09765625 C5.06716582 4.66826936 5.06716582 4.66826936 4.71484375 7.09765625 C1.33984375 7.22265625 1.33984375 7.22265625 -2.28515625 7.09765625 C-2.94515625 6.43765625 -3.60515625 5.77765625 -4.28515625 5.09765625 C-3.53567763 0.15109733 -3.53567763 0.15109733 0 0 Z " fill="#8F9094" transform="translate(112.28515625,145.90234375)"/>
<path d="M0 0 C0.33 0.66 0.66 1.32 1 2 C1.33 1.01 1.66 0.02 2 -1 C2 -0.01 2 0.98 2 2 C2.66 2.33 3.32 2.66 4 3 C3.67 4.65 3.34 6.3 3 8 C3.66 8.33 4.32 8.66 5 9 C3.0625 8.6875 3.0625 8.6875 1 8 C0.67 7.01 0.34 6.02 0 5 C0 5.99 0 6.98 0 8 C-0.66 8 -1.32 8 -2 8 C-2 7.01 -2 6.02 -2 5 C-4.475 4.01 -4.475 4.01 -7 3 C-7 2.01 -7 1.02 -7 0 C-4.30234372 -1.34882814 -2.84835666 -0.80338265 0 0 Z " fill="#8C8C8E" transform="translate(133,121)"/>
<path d="M0 0 C3.96 0 7.92 0 12 0 C12 1.65 12 3.3 12 5 C12.66 5 13.32 5 14 5 C13.34 6.32 12.68 7.64 12 9 C11.01 8.34 10.02 7.68 9 7 C9 6.34 9 5.68 9 5 C9.66 5 10.32 5 11 5 C11 4.01 11 3.02 11 2 C7.7 2 4.4 2 1 2 C1 2.99 1 3.98 1 5 C1.66 5 2.32 5 3 5 C2.34 6.32 1.68 7.64 1 9 C0.01 8.34 -0.98 7.68 -2 7 C-2 6.34 -2 5.68 -2 5 C-1.34 5 -0.68 5 0 5 C0 3.35 0 1.7 0 0 Z " fill="#669BD9" transform="translate(36,94)"/>
<path d="M0 0 C2.97 0 5.94 0 9 0 C8.67 2.31 8.34 4.62 8 7 C5.69 7 3.38 7 1 7 C0.67 4.69 0.34 2.38 0 0 Z " fill="#FAF4EB" transform="translate(40,126)"/>
<path d="M0 0 C6.93 0.495 6.93 0.495 14 1 C14 1.66 14 2.32 14 3 C10.7 3.33 7.4 3.66 4 4 C3.67 7.3 3.34 10.6 3 14 C2.34 14 1.68 14 1 14 C0.67 9.38 0.34 4.76 0 0 Z " fill="#F78A4C" transform="translate(83,432)"/>
<path d="M0 0 C6.93 0.495 6.93 0.495 14 1 C14 1.66 14 2.32 14 3 C10.7 3.33 7.4 3.66 4 4 C3.67 7.3 3.34 10.6 3 14 C2.34 14 1.68 14 1 14 C0.67 9.38 0.34 4.76 0 0 Z " fill="#F78A4C" transform="translate(83,229)"/>
<path d="M0 0 C4.29 0 8.58 0 13 0 C12.67 0.66 12.34 1.32 12 2 C11.34 1.67 10.68 1.34 10 1 C10 1.99 10 2.98 10 4 C7.03 4 4.06 4 1 4 C0.67 6.97 0.34 9.94 0 13 C-0.33 13 -0.66 13 -1 13 C-1.02696365 11.20841511 -1.04637917 9.41671527 -1.0625 7.625 C-1.07410156 6.62726563 -1.08570312 5.62953125 -1.09765625 4.6015625 C-1 2 -1 2 0 0 Z " fill="#758CE7" transform="translate(110,454)"/>
<path d="M0 0 C1.32 0 2.64 0 4 0 C4 3.3 4 6.6 4 10 C2.02 10 0.04 10 -2 10 C-2 7.69 -2 5.38 -2 3 C-1.34 3 -0.68 3 0 3 C0 2.01 0 1.02 0 0 Z " fill="#00A91B" transform="translate(121,276)"/>
<path d="M0 0 C1.32 0 2.64 0 4 0 C4 0.66 4 1.32 4 2 C4.99 1.67 5.98 1.34 7 1 C7 1.66 7 2.32 7 3 C7.99 3 8.98 3 10 3 C10.33 2.34 10.66 1.68 11 1 C11 1.99 11 2.98 11 4 C7.17473317 6.13503265 4.42363568 7.50555836 0 7 C-1 6 -1 6 -1.125 3.5 C-1 1 -1 1 0 0 Z " fill="#898485" transform="translate(131,39)"/>
<path d="M0 0 C0.99 0.33 1.98 0.66 3 1 C2.67 1.99 2.34 2.98 2 4 C2.99 4.66 3.98 5.32 5 6 C5 6.99 5 7.98 5 9 C-0.75 10.125 -0.75 10.125 -3 9 C-2.4140625 2.84765625 -2.4140625 2.84765625 -2 1 C-1.34 0.67 -0.68 0.34 0 0 Z " fill="#D0CAC5" transform="translate(170,458)"/>
<path d="M0 0 C1.98 0 3.96 0 6 0 C6.33 1.65 6.66 3.3 7 5 C6.34 5 5.68 5 5 5 C5.66 6.65 6.32 8.3 7 10 C6.34 10 5.68 10 5 10 C4.67 8.68 4.34 7.36 4 6 C3.34 6 2.68 6 2 6 C2 7.32 2 8.64 2 10 C1.34 10 0.68 10 0 10 C0 6.7 0 3.4 0 0 Z " fill="#73726D" transform="translate(60,120)"/>
<path d="M0 0 C1.98 0 3.96 0 6 0 C6.33 1.65 6.66 3.3 7 5 C6.34 5 5.68 5 5 5 C5.66 6.65 6.32 8.3 7 10 C6.34 10 5.68 10 5 10 C4.67 8.68 4.34 7.36 4 6 C3.34 6 2.68 6 2 6 C2 7.32 2 8.64 2 10 C1.34 10 0.68 10 0 10 C0 6.7 0 3.4 0 0 Z " fill="#73726D" transform="translate(60,98)"/>
<path d="M0 0 C2.31 0.33 4.62 0.66 7 1 C7 1.66 7 2.32 7 3 C7.99 3 8.98 3 10 3 C10.33 2.34 10.66 1.68 11 1 C12 2 12 2 12.0625 4.5625 C12.041875 5.366875 12.02125 6.17125 12 7 C8.66666667 7 5.33333333 7 2 7 C2 5.02 2 3.04 2 1 C1.34 0.67 0.68 0.34 0 0 Z " fill="#716964" transform="translate(173,258)"/>
<path d="M0 0 C1.2065625 0.0309375 1.2065625 0.0309375 2.4375 0.0625 C1.7775 1.7125 1.1175 3.3625 0.4375 5.0625 C1.0975 5.3925 1.7575 5.7225 2.4375 6.0625 C2.1075 7.3825 1.7775 8.7025 1.4375 10.0625 C-1.5325 9.5675 -1.5325 9.5675 -4.5625 9.0625 C-3.56521739 0.08695652 -3.56521739 0.08695652 0 0 Z " fill="#86766C" transform="translate(162.5625,122.9375)"/>
<path d="M0 0 C2.5 0.125 2.5 0.125 3.5 1.125 C3.625 4.125 3.625 4.125 3.5 7.125 C2.5 8.125 2.5 8.125 0 8.25 C-2.5 8.125 -2.5 8.125 -3.5 7.125 C-3.625 4.125 -3.625 4.125 -3.5 1.125 C-2.5 0.125 -2.5 0.125 0 0 Z " fill="#9C9C9C" transform="translate(47.5,103.875)"/>
<path d="M0 0 C2.5 0.125 2.5 0.125 3.5 1.125 C3.625 4.125 3.625 4.125 3.5 7.125 C2.5 8.125 2.5 8.125 0 8.25 C-2.5 8.125 -2.5 8.125 -3.5 7.125 C-3.625 4.125 -3.625 4.125 -3.5 1.125 C-2.5 0.125 -2.5 0.125 0 0 Z " fill="#9C9C9C" transform="translate(36.5,103.875)"/>
<path d="M0 0 C3.3 0 6.6 0 10 0 C10 1.65 10 3.3 10 5 C6.7 5 3.4 5 0 5 C0 3.35 0 1.7 0 0 Z " fill="#F4F6FD" transform="translate(62,215)"/>
<path d="M0 0 C3.3 0 6.6 0 10 0 C9.04065919 3.83736322 8.76390737 4.59660228 6 7 C3.53199953 5.84826645 1.95216435 4.95216435 0 3 C0 2.01 0 1.02 0 0 Z " fill="#E2EAF7" transform="translate(8,189)"/>
<path d="M0 0 C1.98 0 3.96 0 6 0 C6.625 2.375 6.625 2.375 7 5 C6.34 5.66 5.68 6.32 5 7 C4.01 7 3.02 7 2 7 C2 7.99 2 8.98 2 10 C1.34 10 0.68 10 0 10 C0 6.7 0 3.4 0 0 Z " fill="#807F76" transform="translate(124,146)"/>
<path d="M0 0 C3.63 0 7.26 0 11 0 C11 0.99 11 1.98 11 3 C8.69 3.33 6.38 3.66 4 4 C3.67 5.98 3.34 7.96 3 10 C2.34 10 1.68 10 1 10 C0.67 6.7 0.34 3.4 0 0 Z " fill="#676767" transform="translate(34,119)"/>
<path d="M0 0 C1.98 0 3.96 0 6 0 C6.625 2.375 6.625 2.375 7 5 C6.34 5.66 5.68 6.32 5 7 C4.01 7 3.02 7 2 7 C2 7.99 2 8.98 2 10 C1.34 10 0.68 10 0 10 C0 6.7 0 3.4 0 0 Z " fill="#807F76" transform="translate(114,39)"/>
<path d="M0 0 C1.98 0 3.96 0 6 0 C6.625 2.375 6.625 2.375 7 5 C6.34 5.66 5.68 6.32 5 7 C4.01 7 3.02 7 2 7 C2 7.99 2 8.98 2 10 C1.34 10 0.68 10 0 10 C0 6.7 0 3.4 0 0 Z " fill="#A5A3A4" transform="translate(192,461)"/>
<path d="M0 0 C1.65 0 3.3 0 5 0 C4.62875 0.7425 4.2575 1.485 3.875 2.25 C2.70484137 4.94283647 2.70484137 4.94283647 3.875 7.3125 C4.431875 8.1478125 4.431875 8.1478125 5 9 C4 10 4 10 1.4375 10.0625 C0.633125 10.041875 -0.17125 10.02125 -1 10 C-2.31223496 6.06329512 -1.24296256 3.87511856 0 0 Z " fill="#636972" transform="translate(135,168)"/>
<path d="M0 0 C2.5 2.3125 2.5 2.3125 5 5 C5 5.99 5 6.98 5 8 C3.00045254 8.04254356 0.99958364 8.04080783 -1 8 C-1.33 7.67 -1.66 7.34 -2 7 C-2.33 7.66 -2.66 8.32 -3 9 C-3.66 9 -4.32 9 -5 9 C-5 6.69 -5 4.38 -5 2 C-3.35 2 -1.7 2 0 2 C0 1.34 0 0.68 0 0 Z " fill="#FDF5E6" transform="translate(100,166)"/>
<path d="M0 0 C2.5 0.125 2.5 0.125 3.5 1.125 C3.54080783 3.12458364 3.54254356 5.12545254 3.5 7.125 C0.625 7.25 0.625 7.25 -2.5 7.125 C-3.16 6.465 -3.82 5.805 -4.5 5.125 C-3.7519084 0.18759542 -3.7519084 0.18759542 0 0 Z " fill="#0B7745" transform="translate(37.5,142.875)"/>
<path d="M0 0 C5.28 0 10.56 0 16 0 C16 0.99 16 1.98 16 3 C10.72 3 5.44 3 0 3 C0 2.01 0 1.02 0 0 Z " fill="#2D50DB" transform="translate(59,209)"/>
<path d="M0 0 C0.66 0 1.32 0 2 0 C2 3.63 2 7.26 2 11 C0.35 11 -1.3 11 -3 11 C-4 10 -4 10 -4.0625 7.4375 C-4.041875 6.633125 -4.02125 5.82875 -4 5 C-2.68 4.67 -1.36 4.34 0 4 C0 2.68 0 1.36 0 0 Z " fill="#7C6F80" transform="translate(122,119)"/>
<path d="M0 0 C0.66 0 1.32 0 2 0 C2 3.63 2 7.26 2 11 C0.35 11 -1.3 11 -3 11 C-4 10 -4 10 -4.0625 7.4375 C-4.041875 6.633125 -4.02125 5.82875 -4 5 C-2.68 4.67 -1.36 4.34 0 4 C0 2.68 0 1.36 0 0 Z " fill="#7C6F80" transform="translate(122,97)"/>
<path d="M0 0 C1.67542976 0.28604898 3.34385343 0.61781233 5 1 C5.625 3.375 5.625 3.375 6 6 C5.34 6.66 4.68 7.32 4 8 C1.375 7.625 1.375 7.625 -1 7 C-1.04254356 5.00045254 -1.04080783 2.99958364 -1 1 C-0.67 0.67 -0.34 0.34 0 0 Z " fill="#838488" transform="translate(198,11)"/>
<path d="M0 0 C1.65 0 3.3 0 5 0 C3.68 0.33 2.36 0.66 1 1 C1 1.99 1 2.98 1 4 C3.97 4.495 3.97 4.495 7 5 C6.67 6.65 6.34 8.3 6 10 C4.02 10 2.04 10 0 10 C0 6.7 0 3.4 0 0 Z " fill="#301224" transform="translate(161,278)"/>
<path d="M0 0 C4.62 0 9.24 0 14 0 C13.01 0.33 12.02 0.66 11 1 C11 1.66 11 2.32 11 3 C10.01 3 9.02 3 8 3 C8 5.31 8 7.62 8 10 C7.34 10 6.68 10 6 10 C6 8.02 6 6.04 6 4 C5.01 4 4.02 4 3 4 C3 3.01 3 2.02 3 1 C2.01 0.67 1.02 0.34 0 0 Z " fill="#ADE3B6" transform="translate(110,275)"/>
<path d="M0 0 C0.721875 0.185625 1.44375 0.37125 2.1875 0.5625 C5.12826973 1.01995307 7.14103058 0.73516357 10 0 C9.01 0.495 9.01 0.495 8 1 C8 1.66 8 2.32 8 3 C8.99 3.33 9.98 3.66 11 4 C10.67 4.99 10.34 5.98 10 7 C7.69 7 5.38 7 3 7 C3 5.02 3 3.04 3 1 C2.01 0.67 1.02 0.34 0 0 Z " fill="#787480" transform="translate(88,551)"/>
<path d="M0 0 C2.97 0 5.94 0 9 0 C8.67 2.31 8.34 4.62 8 7 C4.84859577 6.65930765 3.39218439 6.41923159 1.1875 4.0625 C0 2 0 2 0 0 Z " fill="#D98A13" transform="translate(33,56)"/>
<path d="M0 0 C2.53541298 0.09086451 5.03554784 0.2370945 7.5625 0.4375 C8.62887695 0.51581055 8.62887695 0.51581055 9.71679688 0.59570312 C11.47821999 0.72574107 13.23916173 0.86226897 15 1 C15 1.33 15 1.66 15 2 C13.41773035 2.19627391 11.83410729 2.38165538 10.25 2.5625 C9.36828125 2.66691406 8.4865625 2.77132812 7.578125 2.87890625 C5 3 5 3 1 2 C1 5.63 1 9.26 1 13 C0.34 13 -0.32 13 -1 13 C-1.02686553 11.02090602 -1.04633375 9.04171029 -1.0625 7.0625 C-1.07410156 5.96035156 -1.08570313 4.85820312 -1.09765625 3.72265625 C-1 1 -1 1 0 0 Z " fill="#D8E4F5" transform="translate(34,184)"/>
<path d="M0 0 C2.53541298 0.09086451 5.03554784 0.2370945 7.5625 0.4375 C8.62887695 0.51581055 8.62887695 0.51581055 9.71679688 0.59570312 C11.47821999 0.72574107 13.23916173 0.86226897 15 1 C15 1.33 15 1.66 15 2 C10.38 2 5.76 2 1 2 C1 5.63 1 9.26 1 13 C0.34 13 -0.32 13 -1 13 C-1.02686553 11.02090602 -1.04633375 9.04171029 -1.0625 7.0625 C-1.07410156 5.96035156 -1.08570313 4.85820313 -1.09765625 3.72265625 C-1 1 -1 1 0 0 Z " fill="#DAC17D" transform="translate(34,544)"/>
<path d="M0 0 C2.53541298 0.09086451 5.03554784 0.2370945 7.5625 0.4375 C8.62887695 0.51581055 8.62887695 0.51581055 9.71679688 0.59570312 C11.47821999 0.72574107 13.23916173 0.86226897 15 1 C15 1.33 15 1.66 15 2 C10.38 2 5.76 2 1 2 C1 5.63 1 9.26 1 13 C0.34 13 -0.32 13 -1 13 C-1.02686553 11.02090602 -1.04633375 9.04171029 -1.0625 7.0625 C-1.07410156 5.96035156 -1.08570313 4.85820313 -1.09765625 3.72265625 C-1 1 -1 1 0 0 Z " fill="#DAC17D" transform="translate(34,522)"/>
<path d="M0 0 C2.53541298 0.09086451 5.03554784 0.2370945 7.5625 0.4375 C8.62887695 0.51581055 8.62887695 0.51581055 9.71679688 0.59570312 C11.47821999 0.72574107 13.23916173 0.86226897 15 1 C15 1.33 15 1.66 15 2 C10.38 2 5.76 2 1 2 C1 5.63 1 9.26 1 13 C0.34 13 -0.32 13 -1 13 C-1.02686553 11.02090602 -1.04633375 9.04171029 -1.0625 7.0625 C-1.07410156 5.96035156 -1.08570313 4.85820312 -1.09765625 3.72265625 C-1 1 -1 1 0 0 Z " fill="#DAC17D" transform="translate(34,499)"/>
<path d="M0 0 C1.65 0 3.3 0 5 0 C6 1 6 1 6.0625 3.5625 C6.041875 4.366875 6.02125 5.17125 6 6 C4.35 6.33 2.7 6.66 1 7 C0.67 7.99 0.34 8.98 0 10 C0 6.7 0 3.4 0 0 Z " fill="#846D73" transform="translate(76,123)"/>
<path d="M0 0 C1.65 0 3.3 0 5 0 C6 1 6 1 6.0625 3.5625 C6.041875 4.366875 6.02125 5.17125 6 6 C4.35 6.33 2.7 6.66 1 7 C0.67 7.99 0.34 8.98 0 10 C0 6.7 0 3.4 0 0 Z " fill="#846D73" transform="translate(76,101)"/>
<path d="M0 0 C2.97 0 5.94 0 9 0 C9 1.98 9 3.96 9 6 C8.360625 6.12375 7.72125 6.2475 7.0625 6.375 C6.0415625 6.684375 6.0415625 6.684375 5 7 C4.67 7.66 4.34 8.32 4 9 C4 7.68 4 6.36 4 5 C4.99 5 5.98 5 7 5 C7 4.01 7 3.02 7 2 C5.35 2 3.7 2 2 2 C1.67 3.32 1.34 4.64 1 6 C0.67 6 0.34 6 0 6 C0 4.02 0 2.04 0 0 Z " fill="#1A1A1A" transform="translate(117,462)"/>
<path d="M0 0 C1.67542976 0.28604898 3.34385343 0.61781233 5 1 C5 2.98 5 4.96 5 7 C3.34385343 7.38218767 1.67542976 7.71395102 0 8 C-1 7 -1 7 -1.125 4 C-1 1 -1 1 0 0 Z " fill="#F9FFFB" transform="translate(116,76)"/>
<path d="M0 0 C1.67542976 0.28604898 3.34385343 0.61781233 5 1 C5.625 2.875 5.625 2.875 6 5 C5.34 5.66 4.68 6.32 4 7 C1.375 6.625 1.375 6.625 -1 6 C-1.042721 4.33388095 -1.04063832 2.66617115 -1 1 C-0.67 0.67 -0.34 0.34 0 0 Z " fill="#888185" transform="translate(188,281)"/>
<path d="M0 0 C1.67542976 0.28604898 3.34385343 0.61781233 5 1 C5.625 2.875 5.625 2.875 6 5 C5.34 5.66 4.68 6.32 4 7 C1.375 6.625 1.375 6.625 -1 6 C-1.042721 4.33388095 -1.04063832 2.66617115 -1 1 C-0.67 0.67 -0.34 0.34 0 0 Z " fill="#888185" transform="translate(88,39)"/>
<path d="M0 0 C4.5 2.25 4.5 2.25 6 6 C4.71034824 7.37562854 3.37310707 8.70766393 2 10 C1.34 10 0.68 10 0 10 C0 6.7 0 3.4 0 0 Z " fill="#545454" transform="translate(10,524)"/>
<path d="M0 0 C3.3 0 6.6 0 10 0 C7.75 4.5 7.75 4.5 4 6 C2.62437146 4.71034824 1.29233607 3.37310707 0 2 C0 1.34 0 0.68 0 0 Z " fill="#545454" transform="translate(58,436)"/>
<path d="M0 0 C3.3 0 6.6 0 10 0 C7.75 4.5 7.75 4.5 4 6 C2.62437146 4.71034824 1.29233607 3.37310707 0 2 C0 1.34 0 0.68 0 0 Z " fill="#545454" transform="translate(83,369)"/>
<path d="M0 0 C3.3 0 6.6 0 10 0 C7.75 4.5 7.75 4.5 4 6 C2.62437146 4.71034824 1.29233607 3.37310707 0 2 C0 1.34 0 0.68 0 0 Z " fill="#545454" transform="translate(83,279)"/>
<path d="M0 0 C3.3 0 6.6 0 10 0 C7.75 4.5 7.75 4.5 4 6 C2.62437146 4.71034824 1.29233607 3.37310707 0 2 C0 1.34 0 0.68 0 0 Z " fill="#545454" transform="translate(58,234)"/>
<path d="M0 0 C3.3 0 6.6 0 10 0 C7.75 4.5 7.75 4.5 4 6 C2.62437146 4.71034824 1.29233607 3.37310707 0 2 C0 1.34 0 0.68 0 0 Z " fill="#545454" transform="translate(33,211)"/>
<path d="M0 0 C1.99954746 -0.04254356 4.00041636 -0.04080783 6 0 C6.33 0.33 6.66 0.66 7 1 C7.66 0.67 8.32 0.34 9 0 C8.67 1.65 8.34 3.3 8 5 C5.69 5 3.38 5 1 5 C0.67 3.35 0.34 1.7 0 0 Z " fill="#222222" transform="translate(42,174)"/>
<path d="M0 0 C4.5 2.25 4.5 2.25 6 6 C4.71034824 7.37562854 3.37310707 8.70766393 2 10 C1.34 10 0.68 10 0 10 C0 6.7 0 3.4 0 0 Z " fill="#545454" transform="translate(10,142)"/>
<path d="M0 0 C1.67542976 0.28604898 3.34385343 0.61781233 5 1 C5 2.65 5 4.3 5 6 C2.625 6.625 2.625 6.625 0 7 C-0.66 6.34 -1.32 5.68 -2 5 C-1.46428571 1.46428571 -1.46428571 1.46428571 0 0 Z " fill="#89848A" transform="translate(140,123)"/>
<path d="M0 0 C4.5 2.25 4.5 2.25 6 6 C4.71034824 7.37562854 3.37310707 8.70766393 2 10 C1.34 10 0.68 10 0 10 C0 6.7 0 3.4 0 0 Z " fill="#545454" transform="translate(10,119)"/>
<path d="M0 0 C1.67542976 0.28604898 3.34385343 0.61781233 5 1 C5 2.65 5 4.3 5 6 C2.625 6.625 2.625 6.625 0 7 C-0.66 6.34 -1.32 5.68 -2 5 C-1.46428571 1.46428571 -1.46428571 1.46428571 0 0 Z " fill="#89848A" transform="translate(94,78)"/>
<path d="M0 0 C4.5 2.25 4.5 2.25 6 6 C4.71034824 7.37562854 3.37310707 8.70766393 2 10 C1.34 10 0.68 10 0 10 C0 6.7 0 3.4 0 0 Z " fill="#545454" transform="translate(10,74)"/>
<path d="M0 0 C0.33 0.99 0.66 1.98 1 3 C1.66 3.33 2.32 3.66 3 4 C3 5.98 3 7.96 3 10 C2.01 9.67 1.02 9.34 0 9 C0 7.35 0 5.7 0 4 C-0.99 4.495 -0.99 4.495 -2 5 C-1.67 6.65 -1.34 8.3 -1 10 C-2.65 9.67 -4.3 9.34 -6 9 C-6.33 7.02 -6.66 5.04 -7 3 C-4.66666667 3 -2.33333333 3 0 3 C0 2.01 0 1.02 0 0 Z " fill="#4A4A5D" transform="translate(156,278)"/>
<path d="M0 0 C1.65 0 3.3 0 5 0 C5.33 1.65 5.66 3.3 6 5 C4.35 5.33 2.7 5.66 1 6 C0.67 7.32 0.34 8.64 0 10 C0 6.7 0 3.4 0 0 Z " fill="#726172" transform="translate(103,525)"/>
<path d="M0 0 C1.32 0 2.64 0 4 0 C4.33 2.31 4.66 4.62 5 7 C3.33388095 7.042721 1.66617115 7.04063832 0 7 C-1 6 -1 6 -1.125 3.5 C-1 1 -1 1 0 0 Z " fill="#9D9FA4" transform="translate(119,506)"/>
<path d="M0 0 C1.65 0 3.3 0 5 0 C5.33 1.65 5.66 3.3 6 5 C4.35 5.33 2.7 5.66 1 6 C0.67 7.32 0.34 8.64 0 10 C0 6.7 0 3.4 0 0 Z " fill="#726172" transform="translate(103,503)"/>
<path d="M0 0 C1.67542976 0.28604898 3.34385343 0.61781233 5 1 C5 2.65 5 4.3 5 6 C3.34385343 6.38218767 1.67542976 6.71395102 0 7 C-1 6 -1 6 -1.125 3.5 C-1 1 -1 1 0 0 Z " fill="#888184" transform="translate(143,461)"/>
<path d="M0 0 C1.32 0 2.64 0 4 0 C4.33 2.31 4.66 4.62 5 7 C3.33388095 7.042721 1.66617115 7.04063832 0 7 C-1 6 -1 6 -1.125 3.5 C-1 1 -1 1 0 0 Z " fill="#9D9FA4" transform="translate(169,303)"/>
<path d="M0 0 C1.67542976 0.28604898 3.34385343 0.61781233 5 1 C5 2.65 5 4.3 5 6 C3.34385343 6.38218767 1.67542976 6.71395102 0 7 C-1 6 -1 6 -1.125 3.5 C-1 1 -1 1 0 0 Z " fill="#888184" transform="translate(158,258)"/>
<path d="M0 0 C1.32 0 2.64 0 4 0 C4.33 2.31 4.66 4.62 5 7 C3.33388095 7.042721 1.66617115 7.04063832 0 7 C-1 6 -1 6 -1.125 3.5 C-1 1 -1 1 0 0 Z " fill="#9D9FA4" transform="translate(94,213)"/>
<path d="M0 0 C1.67542976 0.28604898 3.34385343 0.61781233 5 1 C5 2.65 5 4.3 5 6 C3.34385343 6.38218767 1.67542976 6.71395102 0 7 C-1 6 -1 6 -1.125 3.5 C-1 1 -1 1 0 0 Z " fill="#888184" transform="translate(114,168)"/>
<path d="M0 0 C1.67542976 0.28604898 3.34385343 0.61781233 5 1 C5 2.98 5 4.96 5 7 C3.02 7 1.04 7 -1 7 C-1.04254356 5.00045254 -1.04080783 2.99958364 -1 1 C-0.67 0.67 -0.34 0.34 0 0 Z " fill="#AEA7A0" transform="translate(75,551)"/>
<path d="M0 0 C2.64 0 5.28 0 8 0 C8 1.65 8 3.3 8 5 C7.34 4.34 6.68 3.68 6 3 C5.01 3 4.02 3 3 3 C3 3.99 3 4.98 3 6 C3.66 6.66 4.32 7.32 5 8 C3.35 8 1.7 8 0 8 C0 5.36 0 2.72 0 0 Z " fill="#040404" transform="translate(42,81)"/>
<path d="M0 0 C2.64 0 5.28 0 8 0 C8 1.65 8 3.3 8 5 C7.34 4.34 6.68 3.68 6 3 C5.01 3 4.02 3 3 3 C3 3.99 3 4.98 3 6 C3.66 6.66 4.32 7.32 5 8 C3.35 8 1.7 8 0 8 C0 5.36 0 2.72 0 0 Z " fill="#040404" transform="translate(42,58)"/>
<path d="M0 0 C0.66 0 1.32 0 2 0 C2.33 0.99 2.66 1.98 3 3 C3.33 2.01 3.66 1.02 4 0 C4.66 0 5.32 0 6 0 C6.33 0.99 6.66 1.98 7 3 C7.99 2.01 8.98 1.02 10 0 C9.34 2.31 8.68 4.62 8 7 C7.34 7 6.68 7 6 7 C6 6.01 6 5.02 6 4 C5.34 4 4.68 4 4 4 C4 4.99 4 5.98 4 7 C3.01 6.67 2.02 6.34 1 6 C0.67 4.02 0.34 2.04 0 0 Z " fill="#5A566B" transform="translate(76,39)"/>
<path d="M0 0 C6.93 0.495 6.93 0.495 14 1 C14 1.66 14 2.32 14 3 C9.38 3.33 4.76 3.66 0 4 C0 2.68 0 1.36 0 0 Z " fill="#F68342" transform="translate(83,446)"/>
<path d="M0 0 C6.93 0.495 6.93 0.495 14 1 C14 1.66 14 2.32 14 3 C9.38 3.33 4.76 3.66 0 4 C0 2.68 0 1.36 0 0 Z " fill="#F68342" transform="translate(83,243)"/>
<path d="M0 0 C2.625 -0.1875 2.625 -0.1875 5 0 C4.75 2.375 4.75 2.375 4 5 C1.9375 6.3125 1.9375 6.3125 0 7 C-0.66 5.68 -1.32 4.36 -2 3 C-1.34 2.01 -0.68 1.02 0 0 Z " fill="#3B3B3B" transform="translate(120,487)"/>
<path d="M0 0 C2.625 -0.1875 2.625 -0.1875 5 0 C4.75 2.375 4.75 2.375 4 5 C1.9375 6.3125 1.9375 6.3125 0 7 C-0.66 5.68 -1.32 4.36 -2 3 C-1.34 2.01 -0.68 1.02 0 0 Z " fill="#3B3B3B" transform="translate(120,419)"/>
<path d="M0 0 C2.625 -0.1875 2.625 -0.1875 5 0 C4.75 2.375 4.75 2.375 4 5 C1.9375 6.3125 1.9375 6.3125 0 7 C-0.66 5.68 -1.32 4.36 -2 3 C-1.34 2.01 -0.68 1.02 0 0 Z " fill="#3B3B3B" transform="translate(145,397)"/>
<path d="M0 0 C2.625 -0.1875 2.625 -0.1875 5 0 C4.75 2.375 4.75 2.375 4 5 C1.9375 6.3125 1.9375 6.3125 0 7 C-0.66 5.68 -1.32 4.36 -2 3 C-1.34 2.01 -0.68 1.02 0 0 Z " fill="#3B3B3B" transform="translate(120,374)"/>
<path d="M0 0 C2.625 -0.1875 2.625 -0.1875 5 0 C4.75 2.375 4.75 2.375 4 5 C1.9375 6.3125 1.9375 6.3125 0 7 C-0.66 5.68 -1.32 4.36 -2 3 C-1.34 2.01 -0.68 1.02 0 0 Z " fill="#3B3B3B" transform="translate(120,352)"/>
<path d="M0 0 C2.625 -0.1875 2.625 -0.1875 5 0 C4.75 2.375 4.75 2.375 4 5 C1.9375 6.3125 1.9375 6.3125 0 7 C-0.66 5.68 -1.32 4.36 -2 3 C-1.34 2.01 -0.68 1.02 0 0 Z " fill="#3B3B3B" transform="translate(120,329)"/>
<path d="M0 0 C0.33 0.99 0.66 1.98 1 3 C2.32 3 3.64 3 5 3 C5.33 2.01 5.66 1.02 6 0 C6 0.99 6 1.98 6 3 C6.66 3.33 7.32 3.66 8 4 C7.34 4 6.68 4 6 4 C6 5.65 6 7.3 6 9 C6.66 9.33 7.32 9.66 8 10 C7.01 10 6.02 10 5 10 C5 8.02 5 6.04 5 4 C4.01 4 3.02 4 2 4 C2.33 5.98 2.66 7.96 3 10 C2.01 9.67 1.02 9.34 0 9 C-1.125 3.375 -1.125 3.375 0 0 Z " fill="#482D40" transform="translate(178,278)"/>
<path d="M0 0 C0.66 0 1.32 0 2 0 C2 2.97 2 5.94 2 9 C3.32 9.33 4.64 9.66 6 10 C0.25 10.125 0.25 10.125 -2 9 C-2 7.35 -2 5.7 -2 4 C-1.34 4 -0.68 4 0 4 C0 2.68 0 1.36 0 0 Z " fill="#B49680" transform="translate(160,480)"/>
<path d="M0 0 C2 0.25 2 0.25 4 1 C5 4 5 4 4 7 C2.35 6.67 0.7 6.34 -1 6 C-1.042721 4.33388095 -1.04063832 2.66617115 -1 1 C-0.67 0.67 -0.34 0.34 0 0 Z " fill="#75757A" transform="translate(143,438)"/>
<path d="M0 0 C0.66 0 1.32 0 2 0 C2 2.97 2 5.94 2 9 C3.32 9.33 4.64 9.66 6 10 C0.25 10.125 0.25 10.125 -2 9 C-2 7.35 -2 5.7 -2 4 C-1.34 4 -0.68 4 0 4 C0 2.68 0 1.36 0 0 Z " fill="#B49680" transform="translate(160,413)"/>
<path d="M0 0 C0.66 0 1.32 0 2 0 C2 2.97 2 5.94 2 9 C3.32 9.33 4.64 9.66 6 10 C0.25 10.125 0.25 10.125 -2 9 C-2 7.35 -2 5.7 -2 4 C-1.34 4 -0.68 4 0 4 C0 2.68 0 1.36 0 0 Z " fill="#B49680" transform="translate(185,390)"/>
<path d="M0 0 C0.66 0 1.32 0 2 0 C2 2.97 2 5.94 2 9 C3.32 9.33 4.64 9.66 6 10 C0.25 10.125 0.25 10.125 -2 9 C-2 7.35 -2 5.7 -2 4 C-1.34 4 -0.68 4 0 4 C0 2.68 0 1.36 0 0 Z " fill="#B49680" transform="translate(160,368)"/>
<path d="M0 0 C0.66 0 1.32 0 2 0 C2 2.97 2 5.94 2 9 C3.32 9.33 4.64 9.66 6 10 C0.25 10.125 0.25 10.125 -2 9 C-2 7.35 -2 5.7 -2 4 C-1.34 4 -0.68 4 0 4 C0 2.68 0 1.36 0 0 Z " fill="#B49680" transform="translate(160,345)"/>
<path d="M0 0 C0.66 0 1.32 0 2 0 C2 2.97 2 5.94 2 9 C3.32 9.33 4.64 9.66 6 10 C0.25 10.125 0.25 10.125 -2 9 C-2 7.35 -2 5.7 -2 4 C-1.34 4 -0.68 4 0 4 C0 2.68 0 1.36 0 0 Z " fill="#B49680" transform="translate(160,323)"/>
<path d="M0 0 C2 0.25 2 0.25 4 1 C5 4 5 4 4 7 C2.35 6.67 0.7 6.34 -1 6 C-1.042721 4.33388095 -1.04063832 2.66617115 -1 1 C-0.67 0.67 -0.34 0.34 0 0 Z " fill="#75757A" transform="translate(143,236)"/>
<path d="M0 0 C6.75 -0.125 6.75 -0.125 9 1 C9 2.65 9 4.3 9 6 C7.02 6.33 5.04 6.66 3 7 C3.33 6.34 3.66 5.68 4 5 C4.66 5.33 5.32 5.66 6 6 C5.38125 5.38125 4.7625 4.7625 4.125 4.125 C2.75 2.75 1.375 1.375 0 0 Z " fill="#807E81" transform="translate(139,101)"/>
<path d="M0 0 C1.60379341 -0.05416188 3.20811406 -0.09286638 4.8125 -0.125 C5.70582031 -0.14820313 6.59914063 -0.17140625 7.51953125 -0.1953125 C10 0 10 0 13 2 C10.36 2 7.72 2 5 2 C4.67 2.66 4.34 3.32 4 4 C4 3.34 4 2.68 4 2 C2.68 2 1.36 2 0 2 C0 1.34 0 0.68 0 0 Z M0 4 C1.32 4 2.64 4 4 4 C4 4.66 4 5.32 4 6 C2.68 6 1.36 6 0 6 C0 5.34 0 4.68 0 4 Z " fill="#CDD3EA" transform="translate(112,460)"/>
<path d="M0 0 C0.66 1.32 1.32 2.64 2 4 C3.32 4 4.64 4 6 4 C5.67 5.65 5.34 7.3 5 9 C0.125 8.125 0.125 8.125 -1 7 C-1.125 4 -1.125 4 -1 1 C-0.67 0.67 -0.34 0.34 0 0 Z " fill="#7C7081" transform="translate(129,211)"/>
<path d="M0 0 C0.33 0.99 0.66 1.98 1 3 C1.66 3.33 2.32 3.66 3 4 C2.34 4 1.68 4 1 4 C1 5.65 1 7.3 1 9 C1.66 9.33 2.32 9.66 3 10 C2.01 10 1.02 10 0 10 C0 8.02 0 6.04 0 4 C-0.99 4.33 -1.98 4.66 -3 5 C-3.33 6.65 -3.66 8.3 -4 10 C-4.66 10 -5.32 10 -6 10 C-6 7.69 -6 5.38 -6 3 C-4.02 3 -2.04 3 0 3 C0 2.01 0 1.02 0 0 Z " fill="#E2E8F2" transform="translate(86,188)"/>
<path d="M0 0 C2.475 0.495 2.475 0.495 5 1 C5 2.98 5 4.96 5 7 C3.35 7 1.7 7 0 7 C0 4.69 0 2.38 0 0 Z " fill="#7D6E70" transform="translate(152,123)"/>
<path d="M0 0 C0.66 0 1.32 0 2 0 C2.33 1.65 2.66 3.3 3 5 C3.99 5 4.98 5 6 5 C5.67 6.65 5.34 8.3 5 10 C4.34 9.67 3.68 9.34 3 9 C2.67 9.66 2.34 10.32 2 11 C1.34 11 0.68 11 0 11 C0 7.37 0 3.74 0 0 Z " fill="#585059" transform="translate(106,74)"/>
<path d="M0 0 C0.33 0.66 0.66 1.32 1 2 C1.99 2 2.98 2 4 2 C4.33 1.34 4.66 0.68 5 0 C6 1 6 1 6.0625 3.5625 C6.041875 4.366875 6.02125 5.17125 6 6 C3.69 5.67 1.38 5.34 -1 5 C-0.67 3.35 -0.34 1.7 0 0 Z " fill="#797C8B" transform="translate(130,529)"/>
<path d="M0 0 C2 0.25 2 0.25 4 1 C4.33 1.99 4.66 2.98 5 4 C4.34 4 3.68 4 3 4 C3.33 4.99 3.66 5.98 4 7 C2.35 6.67 0.7 6.34 -1 6 C-1.042721 4.33388095 -1.04063832 2.66617115 -1 1 C-0.67 0.67 -0.34 0.34 0 0 Z " fill="#6C6D73" transform="translate(185,483)"/>
<path d="M0 0 C2 0.25 2 0.25 4 1 C4.33 1.99 4.66 2.98 5 4 C4.34 4 3.68 4 3 4 C3.33 4.99 3.66 5.98 4 7 C2.35 6.67 0.7 6.34 -1 6 C-1.042721 4.33388095 -1.04063832 2.66617115 -1 1 C-0.67 0.67 -0.34 0.34 0 0 Z " fill="#6C6D73" transform="translate(185,416)"/>
<path d="M0 0 C2 0.25 2 0.25 4 1 C4.33 1.99 4.66 2.98 5 4 C4.34 4 3.68 4 3 4 C3.33 4.99 3.66 5.98 4 7 C2.35 6.67 0.7 6.34 -1 6 C-1.042721 4.33388095 -1.04063832 2.66617115 -1 1 C-0.67 0.67 -0.34 0.34 0 0 Z " fill="#6C6D73" transform="translate(210,393)"/>
<path d="M0 0 C2 0.25 2 0.25 4 1 C4.33 1.99 4.66 2.98 5 4 C4.34 4 3.68 4 3 4 C3.33 4.99 3.66 5.98 4 7 C2.35 6.67 0.7 6.34 -1 6 C-1.042721 4.33388095 -1.04063832 2.66617115 -1 1 C-0.67 0.67 -0.34 0.34 0 0 Z " fill="#6C6D73" transform="translate(185,371)"/>
<path d="M0 0 C2 0.25 2 0.25 4 1 C4.33 1.99 4.66 2.98 5 4 C4.34 4 3.68 4 3 4 C3.33 4.99 3.66 5.98 4 7 C2.35 6.67 0.7 6.34 -1 6 C-1.042721 4.33388095 -1.04063832 2.66617115 -1 1 C-0.67 0.67 -0.34 0.34 0 0 Z " fill="#6C6D73" transform="translate(185,348)"/>
<path d="M0 0 C2 0.25 2 0.25 4 1 C4.33 1.99 4.66 2.98 5 4 C4.34 4 3.68 4 3 4 C3.33 4.99 3.66 5.98 4 7 C2.35 6.67 0.7 6.34 -1 6 C-1.042721 4.33388095 -1.04063832 2.66617115 -1 1 C-0.67 0.67 -0.34 0.34 0 0 Z " fill="#6C6D73" transform="translate(185,326)"/>
<path d="M0 0 C2 0.25 2 0.25 4 1 C4.33 1.99 4.66 2.98 5 4 C4.34 4 3.68 4 3 4 C3.33 4.99 3.66 5.98 4 7 C2.35 6.67 0.7 6.34 -1 6 C-1.042721 4.33388095 -1.04063832 2.66617115 -1 1 C-0.67 0.67 -0.34 0.34 0 0 Z " fill="#6C6D73" transform="translate(89,168)"/>
<path d="M0 0 C2.0625 0.1875 2.0625 0.1875 4 1 C4.33 1.99 4.66 2.98 5 4 C3.35 4 1.7 4 0 4 C0 4.66 0 5.32 0 6 C1.32 6.33 2.64 6.66 4 7 C2.02 7 0.04 7 -2 7 C-2.125 4.625 -2.125 4.625 -2 2 C-1.34 1.34 -0.68 0.68 0 0 Z " fill="#726961" transform="translate(142,168)"/>
<path d="M0 0 C0.33 0.66 0.66 1.32 1 2 C1.99 2 2.98 2 4 2 C4.33 1.34 4.66 0.68 5 0 C6 1 6 1 6.0625 3.5625 C6.041875 4.366875 6.02125 5.17125 6 6 C3.69 5.67 1.38 5.34 -1 5 C-0.67 3.35 -0.34 1.7 0 0 Z " fill="#797C8B" transform="translate(146,147)"/>
<path d="M0 0 C2 0.25 2 0.25 4 1 C4.33 1.99 4.66 2.98 5 4 C4.34 4 3.68 4 3 4 C3.33 4.99 3.66 5.98 4 7 C2.35 6.67 0.7 6.34 -1 6 C-1.042721 4.33388095 -1.04063832 2.66617115 -1 1 C-0.67 0.67 -0.34 0.34 0 0 Z " fill="#6C6D73" transform="translate(89,146)"/>
<path d="M0 0 C0.33 0.66 0.66 1.32 1 2 C1.99 2 2.98 2 4 2 C4.33 1.34 4.66 0.68 5 0 C6 1 6 1 6.0625 3.5625 C6.041875 4.366875 6.02125 5.17125 6 6 C3.69 5.67 1.38 5.34 -1 5 C-0.67 3.35 -0.34 1.7 0 0 Z " fill="#797C8B" transform="translate(69,124)"/>
<path d="M0 0 C0.33 0.66 0.66 1.32 1 2 C1.99 2 2.98 2 4 2 C4.33 1.34 4.66 0.68 5 0 C6 1 6 1 6.0625 3.5625 C6.041875 4.366875 6.02125 5.17125 6 6 C3.69 5.67 1.38 5.34 -1 5 C-0.67 3.35 -0.34 1.7 0 0 Z " fill="#797C8B" transform="translate(69,102)"/>
<path d="M0 0 C0.33 0.99 0.66 1.98 1 3 C1.99 3 2.98 3 4 3 C4.33 2.01 4.66 1.02 5 0 C5 0.99 5 1.98 5 3 C5.66 3.33 6.32 3.66 7 4 C7 5.98 7 7.96 7 10 C6.01 9.67 5.02 9.34 4 9 C4 7.35 4 5.7 4 4 C3.01 4 2.02 4 1 4 C1 5.98 1 7.96 1 10 C0.67 10 0.34 10 0 10 C-1.125 3.375 -1.125 3.375 0 0 Z " fill="#6D4C28" transform="translate(201,36)"/>
<path d="M0 0 C1.65 0.33 3.3 0.66 5 1 C5 2.98 5 4.96 5 7 C3.02 7 1.04 7 -1 7 C-0.67 5.68 -0.34 4.36 0 3 C0.99 3 1.98 3 3 3 C3 2.34 3 1.68 3 1 C2.01 0.67 1.02 0.34 0 0 Z " fill="#5B5F68" transform="translate(169,483)"/>
<path d="M0 0 C1.65 0.33 3.3 0.66 5 1 C5 2.98 5 4.96 5 7 C3.02 7 1.04 7 -1 7 C-0.67 5.68 -0.34 4.36 0 3 C0.99 3 1.98 3 3 3 C3 2.34 3 1.68 3 1 C2.01 0.67 1.02 0.34 0 0 Z " fill="#5B5F68" transform="translate(123,438)"/>
<path d="M0 0 C1.65 0.33 3.3 0.66 5 1 C5 2.98 5 4.96 5 7 C3.02 7 1.04 7 -1 7 C-0.67 5.68 -0.34 4.36 0 3 C0.99 3 1.98 3 3 3 C3 2.34 3 1.68 3 1 C2.01 0.67 1.02 0.34 0 0 Z " fill="#5B5F68" transform="translate(169,416)"/>
<path d="M0 0 C1.65 0.33 3.3 0.66 5 1 C5 2.98 5 4.96 5 7 C3.02 7 1.04 7 -1 7 C-0.67 5.68 -0.34 4.36 0 3 C0.99 3 1.98 3 3 3 C3 2.34 3 1.68 3 1 C2.01 0.67 1.02 0.34 0 0 Z " fill="#5B5F68" transform="translate(194,393)"/>
<path d="M0 0 C1.65 0.33 3.3 0.66 5 1 C5 2.98 5 4.96 5 7 C3.02 7 1.04 7 -1 7 C-0.67 5.68 -0.34 4.36 0 3 C0.99 3 1.98 3 3 3 C3 2.34 3 1.68 3 1 C2.01 0.67 1.02 0.34 0 0 Z " fill="#5B5F68" transform="translate(169,371)"/>
<path d="M0 0 C1.65 0.33 3.3 0.66 5 1 C5 2.98 5 4.96 5 7 C3.02 7 1.04 7 -1 7 C-0.67 5.68 -0.34 4.36 0 3 C0.99 3 1.98 3 3 3 C3 2.34 3 1.68 3 1 C2.01 0.67 1.02 0.34 0 0 Z " fill="#5B5F68" transform="translate(169,348)"/>
<path d="M0 0 C1.65 0.33 3.3 0.66 5 1 C5 2.98 5 4.96 5 7 C3.02 7 1.04 7 -1 7 C-0.67 5.68 -0.34 4.36 0 3 C0.99 3 1.98 3 3 3 C3 2.34 3 1.68 3 1 C2.01 0.67 1.02 0.34 0 0 Z " fill="#5B5F68" transform="translate(169,326)"/>
<path d="M0 0 C1.65 0.33 3.3 0.66 5 1 C5 2.98 5 4.96 5 7 C3.02 7 1.04 7 -1 7 C-0.67 5.68 -0.34 4.36 0 3 C0.99 3 1.98 3 3 3 C3 2.34 3 1.68 3 1 C2.01 0.67 1.02 0.34 0 0 Z " fill="#5B5F68" transform="translate(123,236)"/>
<path d="M0 0 C1.65 0.33 3.3 0.66 5 1 C5 2.98 5 4.96 5 7 C3.02 7 1.04 7 -1 7 C-0.67 5.68 -0.34 4.36 0 3 C0.99 3 1.98 3 3 3 C3 2.34 3 1.68 3 1 C2.01 0.67 1.02 0.34 0 0 Z " fill="#5B5F68" transform="translate(127,168)"/>
<path d="M0 0 C0.33 0.66 0.66 1.32 1 2 C1.99 2 2.98 2 4 2 C4.33 1.34 4.66 0.68 5 0 C6 1 6 1 6.0625 3.5625 C6.041875 4.366875 6.02125 5.17125 6 6 C3.625 6.125 3.625 6.125 1 6 C0.34 5.34 -0.32 4.68 -1 4 C-0.625 1.875 -0.625 1.875 0 0 Z " fill="#797882" transform="translate(130,79)"/>
<path d="M0 0 C1.65 0 3.3 0 5 0 C5 0.99 5 1.98 5 3 C4.01 3 3.02 3 2 3 C2.99 4.485 2.99 4.485 4 6 C4.33 6.66 4.66 7.32 5 8 C3.35 8 1.7 8 0 8 C0.33 7.01 0.66 6.02 1 5 C0.01 4.67 -0.98 4.34 -2 4 C-1.34 2.68 -0.68 1.36 0 0 Z " fill="#929292" transform="translate(119,464)"/>
<path d="M0 0 C1.67542976 0.28604898 3.34385343 0.61781233 5 1 C5 1.99 5 2.98 5 4 C3.68 4.33 2.36 4.66 1 5 C2.32 5.66 3.64 6.32 5 7 C3.33388095 7.042721 1.66617115 7.04063832 0 7 C-1 6 -1 6 -1.125 3.5 C-1 1 -1 1 0 0 Z " fill="#5C535B" transform="translate(113,213)"/>
<path d="M0 0 C0.33 0.99 0.66 1.98 1 3 C3.31 3 5.62 3 8 3 C8.33 2.01 8.66 1.02 9 0 C9.33 1.65 9.66 3.3 10 5 C6.37 5 2.74 5 -1 5 C-0.67 3.35 -0.34 1.7 0 0 Z " fill="#DFB16D" transform="translate(40,130)"/>
<path d="M0 0 C0.99 0.66 1.98 1.32 3 2 C3.66 1.34 4.32 0.68 5 0 C4.67 2.31 4.34 4.62 4 7 C2.68 6.34 1.36 5.68 0 5 C-0.33 5.66 -0.66 6.32 -1 7 C-1.66 7 -2.32 7 -3 7 C-3 6.01 -3 5.02 -3 4 C-2.34 4 -1.68 4 -1 4 C-0.67 2.68 -0.34 1.36 0 0 Z " fill="#5D5161" transform="translate(86,78)"/>
<path d="M0 0 C1.67542976 0.28604898 3.34385343 0.61781233 5 1 C5 1.99 5 2.98 5 4 C3.35 4 1.7 4 0 4 C0.95865509 6.33075929 0.95865509 6.33075929 4 8 C2.35 7.67 0.7 7.34 -1 7 C-1.04254356 5.00045254 -1.04080783 2.99958364 -1 1 C-0.67 0.67 -0.34 0.34 0 0 Z " fill="#444351" transform="translate(212,11)"/>
<path d="M0 0 C1.67542976 0.28604898 3.34385343 0.61781233 5 1 C5 1.99 5 2.98 5 4 C3.68 4.33 2.36 4.66 1 5 C1.99 5.66 2.98 6.32 4 7 C2.35 6.67 0.7 6.34 -1 6 C-1.042721 4.33388095 -1.04063832 2.66617115 -1 1 C-0.67 0.67 -0.34 0.34 0 0 Z " fill="#56555C" transform="translate(68,551)"/>
<path d="M0 0 C1.67542976 0.28604898 3.34385343 0.61781233 5 1 C5 1.99 5 2.98 5 4 C3.68 4.33 2.36 4.66 1 5 C1.99 5.66 2.98 6.32 4 7 C2.35 6.67 0.7 6.34 -1 6 C-1.042721 4.33388095 -1.04063832 2.66617115 -1 1 C-0.67 0.67 -0.34 0.34 0 0 Z " fill="#56555C" transform="translate(91,528)"/>
<path d="M0 0 C1.67542976 0.28604898 3.34385343 0.61781233 5 1 C5 1.99 5 2.98 5 4 C3.68 4.33 2.36 4.66 1 5 C1.99 5.66 2.98 6.32 4 7 C2.35 6.67 0.7 6.34 -1 6 C-1.042721 4.33388095 -1.04063832 2.66617115 -1 1 C-0.67 0.67 -0.34 0.34 0 0 Z " fill="#56555C" transform="translate(91,506)"/>
<path d="M0 0 C1.67542976 0.28604898 3.34385343 0.61781233 5 1 C5 1.99 5 2.98 5 4 C3.68 4.33 2.36 4.66 1 5 C1.99 5.66 2.98 6.32 4 7 C2.35 6.67 0.7 6.34 -1 6 C-1.042721 4.33388095 -1.04063832 2.66617115 -1 1 C-0.67 0.67 -0.34 0.34 0 0 Z " fill="#56555C" transform="translate(143,483)"/>
<path d="M0 0 C1.67542976 0.28604898 3.34385343 0.61781233 5 1 C5 1.99 5 2.98 5 4 C3.68 4.33 2.36 4.66 1 5 C1.99 5.66 2.98 6.32 4 7 C2.35 6.67 0.7 6.34 -1 6 C-1.042721 4.33388095 -1.04063832 2.66617115 -1 1 C-0.67 0.67 -0.34 0.34 0 0 Z " fill="#56555C" transform="translate(143,416)"/>
<path d="M0 0 C1.67542976 0.28604898 3.34385343 0.61781233 5 1 C5 1.99 5 2.98 5 4 C3.68 4.33 2.36 4.66 1 5 C1.99 5.66 2.98 6.32 4 7 C2.35 6.67 0.7 6.34 -1 6 C-1.042721 4.33388095 -1.04063832 2.66617115 -1 1 C-0.67 0.67 -0.34 0.34 0 0 Z " fill="#56555C" transform="translate(168,393)"/>
<path d="M0 0 C1.67542976 0.28604898 3.34385343 0.61781233 5 1 C5 1.99 5 2.98 5 4 C3.68 4.33 2.36 4.66 1 5 C1.99 5.66 2.98 6.32 4 7 C2.35 6.67 0.7 6.34 -1 6 C-1.042721 4.33388095 -1.04063832 2.66617115 -1 1 C-0.67 0.67 -0.34 0.34 0 0 Z " fill="#56555C" transform="translate(143,371)"/>
<path d="M0 0 C1.67542976 0.28604898 3.34385343 0.61781233 5 1 C5 1.99 5 2.98 5 4 C3.68 4.33 2.36 4.66 1 5 C1.99 5.66 2.98 6.32 4 7 C2.35 6.67 0.7 6.34 -1 6 C-1.042721 4.33388095 -1.04063832 2.66617115 -1 1 C-0.67 0.67 -0.34 0.34 0 0 Z " fill="#56555C" transform="translate(143,348)"/>
<path d="M0 0 C1.67542976 0.28604898 3.34385343 0.61781233 5 1 C5 1.99 5 2.98 5 4 C3.68 4.33 2.36 4.66 1 5 C1.99 5.66 2.98 6.32 4 7 C2.35 6.67 0.7 6.34 -1 6 C-1.042721 4.33388095 -1.04063832 2.66617115 -1 1 C-0.67 0.67 -0.34 0.34 0 0 Z " fill="#56555C" transform="translate(143,326)"/>
<path d="M0 0 C1.67542976 0.28604898 3.34385343 0.61781233 5 1 C5 1.99 5 2.98 5 4 C3.68 4.33 2.36 4.66 1 5 C1.99 5.66 2.98 6.32 4 7 C2.35 6.67 0.7 6.34 -1 6 C-1.042721 4.33388095 -1.04063832 2.66617115 -1 1 C-0.67 0.67 -0.34 0.34 0 0 Z " fill="#56555C" transform="translate(143,281)"/>
<path d="M0 0 C0.99 0.33 1.98 0.66 3 1 C2.505 1.4125 2.01 1.825 1.5 2.25 C-0.43386092 4.12202338 -0.43386092 4.12202338 0 8 C1.65 8 3.3 8 5 8 C4.67 8.66 4.34 9.32 4 10 C1.625 10.1875 1.625 10.1875 -1 10 C-3 7 -3 7 -2.75 3.875 C-2.37875 2.451875 -2.37875 2.451875 -2 1 C-1.34 0.67 -0.68 0.34 0 0 Z " fill="#666467" transform="translate(151,255)"/>
<path d="M0 0 C1.65 0.33 3.3 0.66 5 1 C5 2.98 5 4.96 5 7 C3.35 7 1.7 7 0 7 C-0.33 6.01 -0.66 5.02 -1 4 C0.32 3.67 1.64 3.34 3 3 C3 2.34 3 1.68 3 1 C2.01 1.33 1.02 1.66 0 2 C0 1.34 0 0.68 0 0 Z " fill="#D1E0F1" transform="translate(73,191)"/>
<path d="M0 0 C1.67542976 0.28604898 3.34385343 0.61781233 5 1 C5 1.99 5 2.98 5 4 C3.68 4.33 2.36 4.66 1 5 C1.99 5.66 2.98 6.32 4 7 C2.35 6.67 0.7 6.34 -1 6 C-1.042721 4.33388095 -1.04063832 2.66617115 -1 1 C-0.67 0.67 -0.34 0.34 0 0 Z " fill="#56555C" transform="translate(69,168)"/>
<path d="M0 0 C1.67542976 0.28604898 3.34385343 0.61781233 5 1 C5 1.99 5 2.98 5 4 C3.68 4.33 2.36 4.66 1 5 C1.99 5.66 2.98 6.32 4 7 C2.35 6.67 0.7 6.34 -1 6 C-1.042721 4.33388095 -1.04063832 2.66617115 -1 1 C-0.67 0.67 -0.34 0.34 0 0 Z " fill="#56555C" transform="translate(69,146)"/>
<path d="M0 0 C0.66 0 1.32 0 2 0 C2 0.99 2 1.98 2 3 C3.32 3 4.64 3 6 3 C5.67 4.32 5.34 5.64 5 7 C5 6.01 5 5.02 5 4 C4.01 4 3.02 4 2 4 C2 5.65 2 7.3 2 9 C2.66 9.33 3.32 9.66 4 10 C2.68 9.67 1.36 9.34 0 9 C-1.125 3.375 -1.125 3.375 0 0 Z " fill="#5A5755" transform="translate(77,75)"/>
<path d="M0 0 C2.62113708 0 4.50935112 0.31292445 7 1 C6.67 2.98 6.34 4.96 6 7 C5.67 5.68 5.34 4.36 5 3 C4.67 3 4.34 3 4 3 C3.67 4.32 3.34 5.64 3 7 C2.01 6.34 1.02 5.68 0 5 C-0.1875 2.375 -0.1875 2.375 0 0 Z " fill="#C6E4EE" transform="translate(35,76)"/>
<path d="M0 0 C1.67542976 0.28604898 3.34385343 0.61781233 5 1 C5 1.99 5 2.98 5 4 C3.68 4.33 2.36 4.66 1 5 C1.99 5.66 2.98 6.32 4 7 C2.35 6.67 0.7 6.34 -1 6 C-1.042721 4.33388095 -1.04063832 2.66617115 -1 1 C-0.67 0.67 -0.34 0.34 0 0 Z " fill="#56555C" transform="translate(84,56)"/>
<path d="M0 0 C1.67542976 0.28604898 3.34385343 0.61781233 5 1 C5 1.99 5 2.98 5 4 C3.68 4.33 2.36 4.66 1 5 C1.99 5.66 2.98 6.32 4 7 C2.35 6.67 0.7 6.34 -1 6 C-1.042721 4.33388095 -1.04063832 2.66617115 -1 1 C-0.67 0.67 -0.34 0.34 0 0 Z " fill="#56555C" transform="translate(62,39)"/>
<path d="M0 0 C0.66 0.33 1.32 0.66 2 1 C2 1.66 2 2.32 2 3 C2.66 3 3.32 3 4 3 C4.33 2.01 4.66 1.02 5 0 C5.66 0.33 6.32 0.66 7 1 C4.39130435 7.60869565 4.39130435 7.60869565 2 10 C1.01 9.67 0.02 9.34 -1 9 C-0.649375 8.2575 -0.29875 7.515 0.0625 6.75 C1.04509293 3.8677274 1.0326802 2.78823655 0 0 Z " fill="#584D5C" transform="translate(217,36)"/>
<path d="M0 0 C1.65 0.33 3.3 0.66 5 1 C5 2.98 5 4.96 5 7 C3.35 7 1.7 7 0 7 C-0.33 6.01 -0.66 5.02 -1 4 C0.32 3.67 1.64 3.34 3 3 C3 2.34 3 1.68 3 1 C2.01 0.67 1.02 0.34 0 0 Z " fill="#534E5B" transform="translate(73,528)"/>
<path d="M0 0 C1.65 0.33 3.3 0.66 5 1 C5 2.98 5 4.96 5 7 C3.35 7 1.7 7 0 7 C-0.33 6.01 -0.66 5.02 -1 4 C0.32 3.67 1.64 3.34 3 3 C3 2.34 3 1.68 3 1 C2.01 0.67 1.02 0.34 0 0 Z " fill="#534E5B" transform="translate(111,506)"/>
<path d="M0 0 C1.65 0.33 3.3 0.66 5 1 C5 2.98 5 4.96 5 7 C3.35 7 1.7 7 0 7 C-0.33 6.01 -0.66 5.02 -1 4 C0.32 3.67 1.64 3.34 3 3 C3 2.34 3 1.68 3 1 C2.01 0.67 1.02 0.34 0 0 Z " fill="#534E5B" transform="translate(73,506)"/>
<path d="M0 0 C2.31 0 4.62 0 7 0 C7 1.32 7 2.64 7 4 C4.69 4 2.38 4 0 4 C0 2.68 0 1.36 0 0 Z " fill="#6894D9" transform="translate(42,196)"/>
<path d="M0 0 C0.99 0.33 1.98 0.66 3 1 C2.67 2.98 2.34 4.96 2 7 C-0.3431213 6.74438677 -2.67843403 6.40729228 -5 6 C-5.33 5.34 -5.66 4.68 -6 4 C-4.35 4 -2.7 4 -1 4 C-0.67 2.68 -0.34 1.36 0 0 Z " fill="#9EBAE6" transform="translate(97,191)"/>
<path d="M0 0 C1.98 0.66 3.96 1.32 6 2 C6 3.32 6 4.64 6 6 C3.03 5.505 3.03 5.505 0 5 C0 3.35 0 1.7 0 0 Z " fill="#D0CAC5" transform="translate(125,124)"/>
<path d="M0 0 C0.99 0.33 1.98 0.66 3 1 C4.1875 4.0625 4.1875 4.0625 5 7 C4.34 6.67 3.68 6.34 3 6 C2.67 7.32 2.34 8.64 2 10 C1.34 10 0.68 10 0 10 C0 6.7 0 3.4 0 0 Z " fill="#6A605A" transform="translate(60,75)"/>
<path d="M0 0 C1.65 0.33 3.3 0.66 5 1 C5 2.98 5 4.96 5 7 C3.35 7 1.7 7 0 7 C-0.33 6.01 -0.66 5.02 -1 4 C0.32 3.67 1.64 3.34 3 3 C3 2.34 3 1.68 3 1 C2.01 0.67 1.02 0.34 0 0 Z " fill="#534E5B" transform="translate(100,56)"/>
<path d="M0 0 C1.65 0.33 3.3 0.66 5 1 C5 2.98 5 4.96 5 7 C3.35 7 1.7 7 0 7 C-0.33 6.01 -0.66 5.02 -1 4 C0.32 3.67 1.64 3.34 3 3 C3 2.34 3 1.68 3 1 C2.01 0.67 1.02 0.34 0 0 Z " fill="#534E5B" transform="translate(123,39)"/>
<path d="M0 0 C2.97 0 5.94 0 9 0 C9 0.99 9 1.98 9 3 C6.03 3 3.06 3 0 3 C0 2.01 0 1.02 0 0 Z " fill="#2D2D2D" transform="translate(42,537)"/>
<path d="M0 0 C1.98 0 3.96 0 6 0 C4.68 0.33 3.36 0.66 2 1 C2 2.32 2 3.64 2 5 C2.99 5.33 3.98 5.66 5 6 C4.01 6 3.02 6 2 6 C2 7.32 2 8.64 2 10 C1.34 10 0.68 10 0 10 C0 6.7 0 3.4 0 0 Z " fill="#434439" transform="translate(110,435)"/>
<path d="M0 0 C1.98 0 3.96 0 6 0 C4.68 0.33 3.36 0.66 2 1 C2 2.32 2 3.64 2 5 C2.99 5.33 3.98 5.66 5 6 C4.01 6 3.02 6 2 6 C2 7.32 2 8.64 2 10 C1.34 10 0.68 10 0 10 C0 6.7 0 3.4 0 0 Z " fill="#434439" transform="translate(110,233)"/>
<path d="M0 0 C0.66 0 1.32 0 2 0 C2.33 3.63 2.66 7.26 3 11 C1.35 11 -0.3 11 -2 11 C-2 10.34 -2 9.68 -2 9 C-1.34 9 -0.68 9 0 9 C0 7.02 0 5.04 0 3 C-0.66 2.67 -1.32 2.34 -2 2 C-1.34 2 -0.68 2 0 2 C0 1.34 0 0.68 0 0 Z " fill="#AF8E73" transform="translate(121,74)"/>
<path d="M0 0 C0.33 0 0.66 0 1 0 C1.33 1.98 1.66 3.96 2 6 C3.32 5.34 4.64 4.68 6 4 C5.814375 4.78375 5.62875 5.5675 5.4375 6.375 C4.74037734 8.97089775 4.74037734 8.97089775 6 11 C5.01 10.67 4.02 10.34 3 10 C3 9.34 3 8.68 3 8 C2.34 8 1.68 8 1 8 C0.67 8.99 0.34 9.98 0 11 C0 7.37 0 3.74 0 0 Z " fill="#353A6B" transform="translate(101,35)"/>
<path d="M0 0 C2.97 0 5.94 0 9 0 C9 0.99 9 1.98 9 3 C6.36 3 3.72 3 1 3 C0.67 2.01 0.34 1.02 0 0 Z " fill="#C8A74E" transform="translate(40,546)"/>
<path d="M0 0 C2.97 0 5.94 0 9 0 C9 0.99 9 1.98 9 3 C6.36 3 3.72 3 1 3 C0.67 2.01 0.34 1.02 0 0 Z " fill="#C8A74E" transform="translate(40,524)"/>
<path d="M0 0 C2.97 0 5.94 0 9 0 C9 0.99 9 1.98 9 3 C6.36 3 3.72 3 1 3 C0.67 2.01 0.34 1.02 0 0 Z " fill="#C8A74E" transform="translate(40,501)"/>
<path d="M0 0 C0.33 0.66 0.66 1.32 1 2 C1.99 2 2.98 2 4 2 C4.33 1.34 4.66 0.68 5 0 C5 1.98 5 3.96 5 6 C3.35 5.67 1.7 5.34 0 5 C-0.5625 3.0625 -0.5625 3.0625 -1 1 C-0.67 0.67 -0.34 0.34 0 0 Z " fill="#6E646A" transform="translate(176,147)"/>
<path d="M0 0 C0.33 0.66 0.66 1.32 1 2 C1.99 2 2.98 2 4 2 C4.33 1.34 4.66 0.68 5 0 C5 1.98 5 3.96 5 6 C3.35 5.67 1.7 5.34 0 5 C-0.5625 3.0625 -0.5625 3.0625 -1 1 C-0.67 0.67 -0.34 0.34 0 0 Z " fill="#6E646A" transform="translate(167,124)"/>
<path d="M0 0 C0.33 0.66 0.66 1.32 1 2 C1.99 2 2.98 2 4 2 C4.33 1.34 4.66 0.68 5 0 C5.33 0.99 5.66 1.98 6 3 C5.34 3 4.68 3 4 3 C4.33 3.99 4.66 4.98 5 6 C3.35 5.67 1.7 5.34 0 5 C-0.5625 3.0625 -0.5625 3.0625 -1 1 C-0.67 0.67 -0.34 0.34 0 0 Z " fill="#675F64" transform="translate(70,79)"/>
<path d="M0 0 C0.33 0.66 0.66 1.32 1 2 C1.99 2 2.98 2 4 2 C4.33 1.34 4.66 0.68 5 0 C5.33 0.99 5.66 1.98 6 3 C5.34 3 4.68 3 4 3 C4.33 3.99 4.66 4.98 5 6 C3.35 5.67 1.7 5.34 0 5 C-0.5625 3.0625 -0.5625 3.0625 -1 1 C-0.67 0.67 -0.34 0.34 0 0 Z " fill="#675F64" transform="translate(119,57)"/>
<path d="M0 0 C0 2.62113708 -0.31292445 4.50935112 -1 7 C-2.65 7 -4.3 7 -6 7 C-6 5.35 -6 3.7 -6 2 C-5.38125 1.855625 -4.7625 1.71125 -4.125 1.5625 C-1.96741678 1.06847775 -1.96741678 1.06847775 0 0 Z " fill="#6D6D6D" transform="translate(400,8)"/>
<path d="M0 0 C0.99 0.33 1.98 0.66 3 1 C2.67 1.99 2.34 2.98 2 4 C2.99 4.66 3.98 5.32 5 6 C5 6.99 5 7.98 5 9 C4.34 9 3.68 9 3 9 C3 8.01 3 7.02 3 6 C0.525 5.01 0.525 5.01 -2 4 C-2 3.01 -2 2.02 -2 1 C-1.34 0.67 -0.68 0.34 0 0 Z " fill="#625F62" transform="translate(170,458)"/>
<path d="M0 0 C1.98 0 3.96 0 6 0 C6 2.31 6 4.62 6 7 C5.67 7 5.34 7 5 7 C5 5.02 5 3.04 5 1 C4.01 1.495 4.01 1.495 3 2 C2.34444881 4.52733235 2.34444881 4.52733235 2 7 C1.34 7 0.68 7 0 7 C0 4.69 0 2.38 0 0 Z " fill="#675246" transform="translate(195,281)"/>
<path d="M0 0 C-0.66 0.391875 -1.32 0.78375 -2 1.1875 C-4.29166667 2.85416667 -4.29166667 2.85416667 -4.25 5.6875 C-4.1675 6.450625 -4.085 7.21375 -4 8 C-4.66 8 -5.32 8 -6 8 C-6.12375 7.195625 -6.2475 6.39125 -6.375 5.5625 C-6.684375 4.2940625 -6.684375 4.2940625 -7 3 C-7.66 2.67 -8.32 2.34 -9 2 C-8.01 2 -7.02 2 -6 2 C-6 1.34 -6 0.68 -6 0 C-3.50907189 -1.24546405 -2.58919267 -0.7767578 0 0 Z " fill="#C8D7EF" transform="translate(109,189)"/>
<path d="M0 0 C0.66 0 1.32 0 2 0 C2 0.66 2 1.32 2 2 C2.66 2 3.32 2 4 2 C4 1.34 4 0.68 4 0 C4.66 0.33 5.32 0.66 6 1 C5.814375 1.78375 5.62875 2.5675 5.4375 3.375 C4.74037734 5.97089775 4.74037734 5.97089775 6 8 C2 8 2 8 0 7 C0 4.69 0 2.38 0 0 Z " fill="#5E474F" transform="translate(177,11)"/>
<path d="M0 0 C2.475 0.495 2.475 0.495 5 1 C5 2.65 5 4.3 5 6 C3.35 6.33 1.7 6.66 0 7 C0.99 6.67 1.98 6.34 3 6 C3 5.34 3 4.68 3 4 C2.01 3.67 1.02 3.34 0 3 C0 2.01 0 1.02 0 0 Z " fill="#615D67" transform="translate(108,39)"/>
<path d="M0 0 C0.66 0 1.32 0 2 0 C3.10844919 3.32534757 2.84454356 5.62182575 2 9 C2.66 9.33 3.32 9.66 4 10 C2.68 9.67 1.36 9.34 0 9 C-1.125 3.375 -1.125 3.375 0 0 Z " fill="#D2DEF0" transform="translate(68,188)"/>
<path d="M0 0 C0.99 0.495 0.99 0.495 2 1 C2 2.65 2 4.3 2 6 C2.99 6.33 3.98 6.66 5 7 C4.01 7 3.02 7 2 7 C2 7.99 2 8.98 2 10 C1.34 10 0.68 10 0 10 C0 6.7 0 3.4 0 0 Z " fill="#55484E" transform="translate(192,461)"/>
<path d="M0 0 C2 0.25 2 0.25 4 1 C4.33 1.99 4.66 2.98 5 4 C3.35 4 1.7 4 0 4 C-0.33 4.66 -0.66 5.32 -1 6 C-1.042721 4.33388095 -1.04063832 2.66617115 -1 1 C-0.67 0.67 -0.34 0.34 0 0 Z " fill="#5C5C64" transform="translate(106,213)"/>
<path d="M0 0 C1.98 0.495 1.98 0.495 4 1 C4.33 2.32 4.66 3.64 5 5 C3.35 5 1.7 5 0 5 C-0.33 4.01 -0.66 3.02 -1 2 C-0.67 1.34 -0.34 0.68 0 0 Z " fill="#E1EEF1" transform="translate(144,57)"/>
<path d="M0 0 C2.475 0.99 2.475 0.99 5 2 C5 3.32 5 4.64 5 6 C3.35 6.66 1.7 7.32 0 8 C0.185625 7.236875 0.37125 6.47375 0.5625 5.6875 C1.22819173 2.91032625 1.22819173 2.91032625 0 0 Z " fill="#6D6D6D" transform="translate(412,10)"/>
<path d="M0 0 C0.33 0.99 0.66 1.98 1 3 C1.66 3.33 2.32 3.66 3 4 C2.34 4 1.68 4 1 4 C1 5.65 1 7.3 1 9 C1.66 9.33 2.32 9.66 3 10 C1.68 9.67 0.36 9.34 -1 9 C-1.33 7.02 -1.66 5.04 -2 3 C-1.34 3 -0.68 3 0 3 C0 2.01 0 1.02 0 0 Z " fill="#415360" transform="translate(201,458)"/>
<path d="M0 0 C0.99 0 1.98 0 3 0 C3 1.65 3 3.3 3 5 C1.68 5.33 0.36 5.66 -1 6 C-0.67 4.02 -0.34 2.04 0 0 Z " fill="#BFC7C2" transform="translate(186,303)"/>
<path d="M0 0 C4.95 0.33 9.9 0.66 15 1 C15 1.33 15 1.66 15 2 C4.44191344 3.51708428 4.44191344 3.51708428 0 1 C0 0.67 0 0.34 0 0 Z " fill="#CEDCF2" transform="translate(34,184)"/>
<path d="M0 0 C0.33 0.99 0.66 1.98 1 3 C1.66 3.33 2.32 3.66 3 4 C2.34 4 1.68 4 1 4 C1 5.65 1 7.3 1 9 C1.66 9.33 2.32 9.66 3 10 C1.68 9.67 0.36 9.34 -1 9 C-1.33 7.02 -1.66 5.04 -2 3 C-1.34 3 -0.68 3 0 3 C0 2.01 0 1.02 0 0 Z " fill="#415360" transform="translate(146,75)"/>
<path d="M0 0 C0.33 0 0.66 0 1 0 C1 1.98 1 3.96 1 6 C-0.65 6 -2.3 6 -4 6 C-3.67 4.68 -3.34 3.36 -3 2 C-2.01 2 -1.02 2 0 2 C0 1.34 0 0.68 0 0 Z " fill="#65564F" transform="translate(75,57)"/>
<path d="M0 0 C0.33 0.99 0.66 1.98 1 3 C1.66 3.33 2.32 3.66 3 4 C2.34 4 1.68 4 1 4 C1 5.65 1 7.3 1 9 C1.66 9.33 2.32 9.66 3 10 C1.68 9.67 0.36 9.34 -1 9 C-1.33 7.02 -1.66 5.04 -2 3 C-1.34 3 -0.68 3 0 3 C0 2.01 0 1.02 0 0 Z " fill="#415360" transform="translate(57,36)"/>
<path d="M0 0 C0.33 0 0.66 0 1 0 C1 3.3 1 6.6 1 10 C0.01 9.67 -0.98 9.34 -2 9 C-2 7.35 -2 5.7 -2 4 C-1.34 4 -0.68 4 0 4 C0 2.68 0 1.36 0 0 Z " fill="#FFFFDA" transform="translate(160,278)"/>
<path d="M0 0 C0.33 0.99 0.66 1.98 1 3 C1.66 3.33 2.32 3.66 3 4 C2.67 5.65 2.34 7.3 2 9 C2.66 9.33 3.32 9.66 4 10 C2.68 9.67 1.36 9.34 0 9 C-1.125 3.375 -1.125 3.375 0 0 Z " fill="#605440" transform="translate(134,120)"/>
<path d="M0 0 C0.66 0 1.32 0 2 0 C2 0.66 2 1.32 2 2 C3.32 2 4.64 2 6 2 C6 2.66 6 3.32 6 4 C4.68 4 3.36 4 2 4 C2 4.66 2 5.32 2 6 C1.34 6 0.68 6 0 6 C0 4.02 0 2.04 0 0 Z " fill="#787878" transform="translate(44,105)"/>
<path d="M0 0 C0.66 0 1.32 0 2 0 C2 1.98 2 3.96 2 6 C1.34 6 0.68 6 0 6 C0 5.34 0 4.68 0 4 C-1.32 4 -2.64 4 -4 4 C-4 3.34 -4 2.68 -4 2 C-2.68 2 -1.36 2 0 2 C0 1.34 0 0.68 0 0 Z " fill="#787878" transform="translate(38,105)"/>
<path d="M0 0 C0.66 0 1.32 0 2 0 C2 1.32 2 2.64 2 4 C2.99 4.33 3.98 4.66 5 5 C4.01 5.33 3.02 5.66 2 6 C1.67 7.65 1.34 9.3 1 11 C0.67 11 0.34 11 0 11 C0 7.37 0 3.74 0 0 Z " fill="#644537" transform="translate(189,35)"/>
<path d="M0 0 C0.33 0.99 0.66 1.98 1 3 C1.66 3.33 2.32 3.66 3 4 C3 5.98 3 7.96 3 10 C2.01 9.67 1.02 9.34 0 9 C-1.125 3.375 -1.125 3.375 0 0 Z " fill="#5C4841" transform="translate(68,525)"/>
<path d="M0 0 C0.33 0.99 0.66 1.98 1 3 C1.66 3.33 2.32 3.66 3 4 C3 5.98 3 7.96 3 10 C2.01 9.67 1.02 9.34 0 9 C-1.125 3.375 -1.125 3.375 0 0 Z " fill="#5C4841" transform="translate(68,503)"/>
<path d="M0 0 C0.33 0.99 0.66 1.98 1 3 C1.66 3.33 2.32 3.66 3 4 C3 5.98 3 7.96 3 10 C2.01 9.67 1.02 9.34 0 9 C-1.125 3.375 -1.125 3.375 0 0 Z " fill="#5C4841" transform="translate(156,480)"/>
<path d="M0 0 C0.33 0.99 0.66 1.98 1 3 C1.66 3.33 2.32 3.66 3 4 C3 5.98 3 7.96 3 10 C2.01 9.67 1.02 9.34 0 9 C-1.125 3.375 -1.125 3.375 0 0 Z " fill="#5C4841" transform="translate(156,413)"/>
<path d="M0 0 C0.33 0.99 0.66 1.98 1 3 C1.66 3.33 2.32 3.66 3 4 C3 5.98 3 7.96 3 10 C2.01 9.67 1.02 9.34 0 9 C-1.125 3.375 -1.125 3.375 0 0 Z " fill="#5C4841" transform="translate(181,390)"/>
<path d="M0 0 C0.33 0.99 0.66 1.98 1 3 C1.66 3.33 2.32 3.66 3 4 C3 5.98 3 7.96 3 10 C2.01 9.67 1.02 9.34 0 9 C-1.125 3.375 -1.125 3.375 0 0 Z " fill="#5C4841" transform="translate(156,368)"/>
<path d="M0 0 C0.33 0.99 0.66 1.98 1 3 C1.66 3.33 2.32 3.66 3 4 C3 5.98 3 7.96 3 10 C2.01 9.67 1.02 9.34 0 9 C-1.125 3.375 -1.125 3.375 0 0 Z " fill="#5C4841" transform="translate(156,345)"/>
<path d="M0 0 C0.33 0.99 0.66 1.98 1 3 C1.66 3.33 2.32 3.66 3 4 C3 5.98 3 7.96 3 10 C2.01 9.67 1.02 9.34 0 9 C-1.125 3.375 -1.125 3.375 0 0 Z " fill="#5C4841" transform="translate(156,323)"/>
<path d="M0 0 C0.33 0.99 0.66 1.98 1 3 C1.66 3.33 2.32 3.66 3 4 C3 5.98 3 7.96 3 10 C2.01 9.67 1.02 9.34 0 9 C-1.125 3.375 -1.125 3.375 0 0 Z " fill="#5C4841" transform="translate(192,300)"/>
<path d="M0 0 C0.33 0.99 0.66 1.98 1 3 C1.66 3.33 2.32 3.66 3 4 C3 5.98 3 7.96 3 10 C2.01 9.67 1.02 9.34 0 9 C-1.125 3.375 -1.125 3.375 0 0 Z " fill="#5C4841" transform="translate(156,278)"/>
<path d="M0 0 C0.33 0 0.66 0 1 0 C1 2.31 1 4.62 1 7 C-1.9375 6.625 -1.9375 6.625 -5 6 C-5.33 5.34 -5.66 4.68 -6 4 C-4.02 4 -2.04 4 0 4 C0 2.68 0 1.36 0 0 Z " fill="#E1CDB2" transform="translate(75,168)"/>
<path d="M0 0 C0.33 0 0.66 0 1 0 C1 2.31 1 4.62 1 7 C-1.9375 6.625 -1.9375 6.625 -5 6 C-5.33 5.34 -5.66 4.68 -6 4 C-4.02 4 -2.04 4 0 4 C0 2.68 0 1.36 0 0 Z " fill="#E1CDB2" transform="translate(75,146)"/>
<path d="M0 0 C1.98 0.495 1.98 0.495 4 1 C4 1.99 4 2.98 4 4 C2.35 4 0.7 4 -1 4 C-0.67 2.68 -0.34 1.36 0 0 Z " fill="#0C0C0C" transform="translate(45,553)"/>
<path d="M0 0 C1.98 0.495 1.98 0.495 4 1 C4 1.99 4 2.98 4 4 C2.35 4 0.7 4 -1 4 C-0.67 2.68 -0.34 1.36 0 0 Z " fill="#0C0C0C" transform="translate(45,531)"/>
<path d="M0 0 C1.32 0 2.64 0 4 0 C3.34 2.31 2.68 4.62 2 7 C1.34 7 0.68 7 0 7 C0 4.69 0 2.38 0 0 Z " fill="#705D7D" transform="translate(137,528)"/>
<path d="M0 0 C0.33 0.99 0.66 1.98 1 3 C1.66 3.33 2.32 3.66 3 4 C2.34 4 1.68 4 1 4 C1 5.65 1 7.3 1 9 C1.66 9.33 2.32 9.66 3 10 C2.01 10 1.02 10 0 10 C0 8.02 0 6.04 0 4 C-1.32 3.67 -2.64 3.34 -4 3 C-2.68 3 -1.36 3 0 3 C0 2.01 0 1.02 0 0 Z " fill="#17254E" transform="translate(86,525)"/>
<path d="M0 0 C0.33 0.99 0.66 1.98 1 3 C1.66 3.33 2.32 3.66 3 4 C2.34 4 1.68 4 1 4 C1 5.65 1 7.3 1 9 C1.66 9.33 2.32 9.66 3 10 C2.01 10 1.02 10 0 10 C0 8.02 0 6.04 0 4 C-1.32 3.67 -2.64 3.34 -4 3 C-2.68 3 -1.36 3 0 3 C0 2.01 0 1.02 0 0 Z " fill="#17254E" transform="translate(86,503)"/>
<path d="M0 0 C1.32 0 2.64 0 4 0 C3.34 2.31 2.68 4.62 2 7 C1.34 7 0.68 7 0 7 C0 4.69 0 2.38 0 0 Z " fill="#73696A" transform="translate(183,461)"/>
<path d="M0 0 C1.32 0 2.64 0 4 0 C3.34 2.31 2.68 4.62 2 7 C1.34 7 0.68 7 0 7 C0 4.69 0 2.38 0 0 Z " fill="#73696A" transform="translate(117,438)"/>
<path d="M0 0 C1.65 0 3.3 0 5 0 C5 2.31 5 4.62 5 7 C4.34 7 3.68 7 3 7 C2.814375 5.824375 2.814375 5.824375 2.625 4.625 C2.20882007 1.85942178 2.20882007 1.85942178 0 0 Z " fill="#696870" transform="translate(177,303)"/>
<path d="M0 0 C2.475 0.495 2.475 0.495 5 1 C4.67 1.99 4.34 2.98 4 4 C2.68 4 1.36 4 0 4 C0 2.68 0 1.36 0 0 Z " fill="#DDE6E5" transform="translate(162,283)"/>
<path d="M0 0 C1.98 0 3.96 0 6 0 C6 0.99 6 1.98 6 3 C4.02 3 2.04 3 0 3 C0 2.01 0 1.02 0 0 Z " fill="#AEBBC7" transform="translate(162,279)"/>
<path d="M0 0 C1.32 0 2.64 0 4 0 C3.34 2.31 2.68 4.62 2 7 C1.34 7 0.68 7 0 7 C0 4.69 0 2.38 0 0 Z " fill="#73696A" transform="translate(186,258)"/>
<path d="M0 0 C1.32 0 2.64 0 4 0 C3.34 2.31 2.68 4.62 2 7 C1.34 7 0.68 7 0 7 C0 4.69 0 2.38 0 0 Z " fill="#72705D" transform="translate(165,258)"/>
<path d="M0 0 C1.32 0 2.64 0 4 0 C3.34 2.31 2.68 4.62 2 7 C1.34 7 0.68 7 0 7 C0 4.69 0 2.38 0 0 Z " fill="#73696A" transform="translate(117,236)"/>
<path d="M0 0 C0.33 0.99 0.66 1.98 1 3 C0 4 0 4 -2.5625 4.0625 C-3.7690625 4.0315625 -3.7690625 4.0315625 -5 4 C-5 3.01 -5 2.02 -5 1 C-3.35 0.67 -1.7 0.34 0 0 Z " fill="#B6BBB8" transform="translate(111,216)"/>
<path d="M0 0 C1.32 0 2.64 0 4 0 C3.34 2.31 2.68 4.62 2 7 C1.34 7 0.68 7 0 7 C0 4.69 0 2.38 0 0 Z " fill="#705D7D" transform="translate(100,213)"/>
<path d="M0 0 C2.31 0 4.62 0 7 0 C7.33 1.32 7.66 2.64 8 4 C7.34 4 6.68 4 6 4 C6 3.34 6 2.68 6 2 C4.02 2 2.04 2 0 2 C0 1.34 0 0.68 0 0 Z " fill="#8BA297" transform="translate(42,172)"/>
<path d="M0 0 C1.65 0 3.3 0 5 0 C4.34 0.66 3.68 1.32 3 2 C2.35232207 4.57061311 2.35232207 4.57061311 2 7 C1.34 7 0.68 7 0 7 C0 4.69 0 2.38 0 0 Z " fill="#646261" transform="translate(95,168)"/>
<path d="M0 0 C1.65 0 3.3 0 5 0 C4.34 0.66 3.68 1.32 3 2 C2.35232207 4.57061311 2.35232207 4.57061311 2 7 C1.34 7 0.68 7 0 7 C0 4.69 0 2.38 0 0 Z " fill="#646261" transform="translate(95,146)"/>
<path d="M0 0 C1.32 0 2.64 0 4 0 C3.34 2.31 2.68 4.62 2 7 C1.34 7 0.68 7 0 7 C0 4.69 0 2.38 0 0 Z " fill="#705D7D" transform="translate(147,123)"/>
<path d="M0 0 C0.33 1.32 0.66 2.64 1 4 C1.66 4 2.32 4 3 4 C2.34 5.32 1.68 6.64 1 8 C0.01 7.34 -0.98 6.68 -2 6 C-2 5.34 -2 4.68 -2 4 C-1.34 4 -0.68 4 0 4 C0 2.68 0 1.36 0 0 Z " fill="#387DCE" transform="translate(47,95)"/>
<path d="M0 0 C0.33 1.32 0.66 2.64 1 4 C1.66 4 2.32 4 3 4 C2.34 5.32 1.68 6.64 1 8 C0.01 7.34 -0.98 6.68 -2 6 C-2 5.34 -2 4.68 -2 4 C-1.34 4 -0.68 4 0 4 C0 2.68 0 1.36 0 0 Z " fill="#387DCE" transform="translate(36,95)"/>
<path d="M0 0 C0.99 0 1.98 0 3 0 C3.33 1.65 3.66 3.3 4 5 C3.01 5.495 3.01 5.495 2 6 C1.34 5.67 0.68 5.34 0 5 C0 3.35 0 1.7 0 0 Z " fill="#FBF8EA" transform="translate(79,79)"/>
<path d="M0 0 C2.97 0.495 2.97 0.495 6 1 C6 1.66 6 2.32 6 3 C5.195625 3.12375 4.39125 3.2475 3.5625 3.375 C2.2940625 3.684375 2.2940625 3.684375 1 4 C0.67 4.66 0.34 5.32 0 6 C0 4.02 0 2.04 0 0 Z " fill="#FDFAEE" transform="translate(69,56)"/>
<path d="M0 0 C1.65 0 3.3 0 5 0 C4.34 0.66 3.68 1.32 3 2 C2.35232207 4.57061311 2.35232207 4.57061311 2 7 C1.34 7 0.68 7 0 7 C0 4.69 0 2.38 0 0 Z " fill="#646261" transform="translate(95,39)"/>
<path d="M0 0 C1.98 0 3.96 0 6 0 C5.67 1.32 5.34 2.64 5 4 C2.525 3.01 2.525 3.01 0 2 C0 1.34 0 0.68 0 0 Z " fill="#D0D9DB" transform="translate(212,15)"/>
<path d="M0 0 C2.475 0.495 2.475 0.495 5 1 C5 2.98 5 4.96 5 7 C4.34 6.67 3.68 6.34 3 6 C3 5.34 3 4.68 3 4 C2.34 3.67 1.68 3.34 1 3 C1.66 3 2.32 3 3 3 C3 2.34 3 1.68 3 1 C2.01 0.67 1.02 0.34 0 0 Z " fill="#28354A" transform="translate(75,551)"/>
<path d="M0 0 C2.97 0.495 2.97 0.495 6 1 C6 1.99 6 2.98 6 4 C4.02 3.34 2.04 2.68 0 2 C0 1.34 0 0.68 0 0 Z " fill="#111111" transform="translate(44,507)"/>
<path d="M0 0 C0.33 0 0.66 0 1 0 C1 1.98 1 3.96 1 6 C0.360625 6.12375 -0.27875 6.2475 -0.9375 6.375 C-1.9584375 6.684375 -1.9584375 6.684375 -3 7 C-3.33 7.66 -3.66 8.32 -4 9 C-4 7.68 -4 6.36 -4 5 C-3.01 4.67 -2.02 4.34 -1 4 C-0.26676204 1.98491642 -0.26676204 1.98491642 0 0 Z " fill="#2A2A2A" transform="translate(125,462)"/>
<path d="M0 0 C0.33 0 0.66 0 1 0 C1 1.65 1 3.3 1 5 C-0.65 5 -2.3 5 -4 5 C-4 4.01 -4 3.02 -4 2 C-2.68 2 -1.36 2 0 2 C0 1.34 0 0.68 0 0 Z " fill="#A0ADC0" transform="translate(184,260)"/>
<path d="M0 0 C2.475 0.495 2.475 0.495 5 1 C5 2.98 5 4.96 5 7 C4.34 6.67 3.68 6.34 3 6 C3 5.34 3 4.68 3 4 C2.34 3.67 1.68 3.34 1 3 C1.66 3 2.32 3 3 3 C3 2.34 3 1.68 3 1 C2.01 0.67 1.02 0.34 0 0 Z " fill="#28354A" transform="translate(99,123)"/>
<path d="M0 0 C2.475 0.495 2.475 0.495 5 1 C5 2.98 5 4.96 5 7 C4.34 6.67 3.68 6.34 3 6 C3 5.34 3 4.68 3 4 C2.34 3.67 1.68 3.34 1 3 C1.66 3 2.32 3 3 3 C3 2.34 3 1.68 3 1 C2.01 0.67 1.02 0.34 0 0 Z " fill="#28354A" transform="translate(99,101)"/>
<path d="M0 0 C2.375 -0.1875 2.375 -0.1875 5 0 C5.66 0.99 6.32 1.98 7 3 C4.69 3 2.38 3 0 3 C0 2.01 0 1.02 0 0 Z " fill="#80C4D9" transform="translate(37,72)"/>
<path d="M0 0 C0.66 0.33 1.32 0.66 2 1 C1.67 2.65 1.34 4.3 1 6 C0.01 6 -0.98 6 -2 6 C-2 4.35 -2 2.7 -2 1 C-1.34 0.67 -0.68 0.34 0 0 Z " fill="#F0F6E4" transform="translate(82,56)"/>
<path d="M0 0 C0.66 0 1.32 0 2 0 C2 1.98 2 3.96 2 6 C1.01 6.495 1.01 6.495 0 7 C-2.125 6.0625 -2.125 6.0625 -4 5 C-4 4.67 -4 4.34 -4 4 C-2.35 4 -0.7 4 1 4 C0.67 2.68 0.34 1.36 0 0 Z " fill="#E8F6FA" transform="translate(88,56)"/>
<path d="M0 0 C2.475 0.99 2.475 0.99 5 2 C5 2.66 5 3.32 5 4 C3.68 4.33 2.36 4.66 1 5 C0.34 3.68 -0.32 2.36 -1 1 C-0.67 0.67 -0.34 0.34 0 0 Z " fill="#E9EFED" transform="translate(106,41)"/>
<path d="M0 0 C0.33 0 0.66 0 1 0 C1 2.64 1 5.28 1 8 C0.01 7.34 -0.98 6.68 -2 6 C-1.125 1.125 -1.125 1.125 0 0 Z " fill="#BDD9E1" transform="translate(183,11)"/>
</svg>
